<svg id="Artwork_20" data-name="Artwork 20" xmlns="http://www.w3.org/2000/svg" width="70.645" height="47.346" viewBox="0 0 70.645 47.346">
  <g id="Group_57" data-name="Group 57" transform="translate(0)">
    <g id="Group_53" data-name="Group 53" transform="translate(25.015)">
      <path id="Path_25" data-name="Path 25" d="M81.57,26.381v.246h-.328A.267.267,0,0,0,81,26.9l0,1.423c0,1.994-2.185,1.884-2.185,1.884v1.065a.5.5,0,0,0,.422.491H79.6v.219H77.2v-.219h.369a.5.5,0,0,0,.423-.491V30.2S75.8,30.314,75.8,28.32l0-1.423a.267.267,0,0,0-.242-.27h-.328v-.246H75.8s.847-.027.847,1.175v1.283a1.178,1.178,0,0,0,1.339,1.119V27.064s0-.491-.71-.437v-.246h2.242v.246c-.71-.054-.71.437-.71.437v2.894a1.177,1.177,0,0,0,1.338-1.119V27.556c0-1.2.847-1.175.847-1.175Z" transform="translate(-68.077 -15.1)"/>
      <path id="Path_26" data-name="Path 26" d="M79.148,18.79s-7.818,4.268-7.951,13.3H69.571V18.524a4.842,4.842,0,1,0-1.491,0V32.086H66.454c-.133-9.029-7.954-13.3-7.954-13.3L62.281,0H75.37Z" transform="translate(-58.5)"/>
    </g>
    <g id="Group_56" data-name="Group 56" transform="translate(0 38.214)">
      <g id="Group_54" data-name="Group 54" transform="translate(19.029 1.054)">
        <path id="Path_27" data-name="Path 27" d="M80.065,94.983a1.358,1.358,0,0,0,.469-1.131v-.738s-.125-1.067-.959-1.28H77.989V98.84h.817V95.73l.655.01s.3.059.37.65a2.118,2.118,0,0,1,.013.244c0,.09-.006.288-.006.288v1.893h.817V96.1A1.79,1.79,0,0,0,80.065,94.983Zm-.767-.3h-.492V92.751H79.3s.4.127.4.935S79.3,94.682,79.3,94.682Z" transform="translate(-63.669 -91.834)"/>
        <path id="Path_28" data-name="Path 28" d="M103.573,94.983a1.358,1.358,0,0,0,.469-1.131v-.738s-.125-1.067-.959-1.28H101.5V98.84h.817V95.73l.655.01s.3.059.37.65a2.113,2.113,0,0,1,.013.244c0,.09-.006.288-.006.288v1.893h.817V96.1A1.79,1.79,0,0,0,103.573,94.983Zm-.767-.3h-.492V92.751h.492s.4.127.4.935S102.806,94.682,102.806,94.682Z" transform="translate(-77.125 -91.834)"/>
        <path id="Path_29" data-name="Path 29" d="M88.195,97.873v.983H85.96V91.834h.817v6.039Z" transform="translate(-68.231 -91.834)"/>
        <path id="Path_30" data-name="Path 30" d="M64.269,92.9l-1.546,4.879h1.586V98.84H61.792V97.776h0L63.385,92.9H61.792V91.834h2.517v.938Z" transform="translate(-54.398 -91.834)"/>
        <path id="Path_31" data-name="Path 31" d="M47.485,91.837l-1.108,3.5v3.519h-.817V95.191L44.5,91.837h.884l.609,1.925.609-1.925Z" transform="translate(-44.5 -91.835)"/>
        <path id="Path_32" data-name="Path 32" d="M55.124,91.836h-.89l-1.017,7.021h.832l.145-1h.97l.145,1h.832Zm-.775,4.953.331-2.282.33,2.282Z" transform="translate(-49.49 -91.835)"/>
        <path id="Path_33" data-name="Path 33" d="M71.321,91.834h-.89l-1.017,7.022h.832l.145-1h.97l.145,1h.832Zm-.775,4.953.331-2.282.33,2.282Z" transform="translate(-58.761 -91.834)"/>
        <path id="Path_34" data-name="Path 34" d="M94.829,91.834h-.89l-1.017,7.022h.832l.145-1h.97l.145,1h.832Zm-.775,4.953.331-2.282.33,2.282Z" transform="translate(-72.216 -91.834)"/>
      </g>
      <path id="Path_35" data-name="Path 35" d="M124.529,91.948a1.2,1.2,0,0,0-1.011,0,1.538,1.538,0,0,0-.818,1.53v3.583a1.681,1.681,0,0,0,.818,1.661,1.114,1.114,0,0,0,1.011,0,1.973,1.973,0,0,0,.818-1.654v-3.6A1.76,1.76,0,0,0,124.529,91.948Zm0,5.343a.782.782,0,0,1-.256.562.384.384,0,0,1-.477,0,.753.753,0,0,1-.278-.562V93.266a.671.671,0,0,1,.278-.518.41.41,0,0,1,.477,0,.7.7,0,0,1,.256.518Z" transform="translate(-70.233 -90.779)"/>
      <path id="Path_36" data-name="Path 36" d="M157.778,96.759a2.068,2.068,0,0,1,.038.47,4.006,4.006,0,0,1-.038.485s-.213,1.143-1.046,1.143h-.647a1.292,1.292,0,0,1-.923-1.136,9.1,9.1,0,0,1,0-1.136h.85s-.223,1.288.486,1.288c.593,0,.587-.8.5-1.1-.106-.357-.3-.625-.995-1.363a2.691,2.691,0,0,1-.879-1.589,3.741,3.741,0,0,1-.032-.47c0-.106.032-.421.032-.421.125-.809.575-1.028.875-1.082a5.237,5.237,0,0,1,.639-.012c.779,0,.922.939.942,1.057.027.155.023.756.023.756l-.709-.008s.036-1.042-.52-1.042c-.664,0-.623.946-.532,1.281a3.867,3.867,0,0,0,.948,1.312A3.293,3.293,0,0,1,157.778,96.759Z" transform="translate(-88.773 -90.781)"/>
      <path id="Path_37" data-name="Path 37" d="M163.2,100.046" transform="translate(-93.414 -95.48)"/>
      <path id="Path_38" data-name="Path 38" d="M141.239,93.532v.423h-.818v-.636a.736.736,0,0,0-.256-.537.4.4,0,0,0-.476,0,.7.7,0,0,0-.278.537v4.045a.715.715,0,0,0,.265.465.374.374,0,0,0,.477,0,.818.818,0,0,0,.256-.582v-.69h.818v.451a2.107,2.107,0,0,1-.8,1.713l-.013.008a1.075,1.075,0,0,1-1,.007l-.013-.007a1.646,1.646,0,0,1-.8-1.428V93.539a1.6,1.6,0,0,1,.818-1.586,1.16,1.16,0,0,1,1.011,0A1.85,1.85,0,0,1,141.239,93.532Z" transform="translate(-79.329 -90.78)"/>
      <path id="Path_39" data-name="Path 39" d="M117.974,97.875v.983h-2.235V91.836h.817v6.038Z" transform="translate(-66.248 -90.781)"/>
      <path id="Path_40" data-name="Path 40" d="M133.29,91.836v7.021h-.76l-.05-.16-1.038-3.72v3.88h-.817V91.836h.817l.008.027,1.023,3.689V91.836Z" transform="translate(-74.768 -90.781)"/>
      <rect id="Rectangle_42" data-name="Rectangle 42" width="0.817" height="6.986" transform="translate(69.828 1.054)"/>
      <path id="Path_41" data-name="Path 41" d="M148.423,91.834h-.89l-1.017,7.022h.832l.145-1h.97l.145,1h.832Zm-.775,4.953.331-2.282.33,2.282Z" transform="translate(-83.865 -90.78)"/>
      <g id="Group_55" data-name="Group 55">
        <path id="Path_42" data-name="Path 42" d="M2.724,91.741v.81H1.771v6.211H.954V92.552H0v-.81Z" transform="translate(0 -90.726)"/>
        <path id="Path_43" data-name="Path 43" d="M17.655,91.855a1.2,1.2,0,0,0-1.011,0,1.539,1.539,0,0,0-.818,1.53v3.582a1.681,1.681,0,0,0,.818,1.661,1.114,1.114,0,0,0,1.011,0,1.973,1.973,0,0,0,.818-1.653v-3.6A1.761,1.761,0,0,0,17.655,91.855Zm0,5.343a.781.781,0,0,1-.256.562.384.384,0,0,1-.477,0,.753.753,0,0,1-.278-.562V93.174a.672.672,0,0,1,.278-.518.41.41,0,0,1,.477,0,.7.7,0,0,1,.256.518Z" transform="translate(-9.059 -90.726)"/>
        <path id="Path_44" data-name="Path 44" d="M9.944,91.741H8.107v7.021h.817V95.631h1.02s.722-.216.722-1.538V93.065S10.673,91.989,9.944,91.741Zm-.357,3.076H8.924V92.556h.662s.357.225.357,1.166S9.587,94.817,9.587,94.817Z" transform="translate(-4.64 -90.726)"/>
        <path id="Path_45" data-name="Path 45" d="M26.4,93.439v.423h-.817v-.636a.736.736,0,0,0-.256-.537.4.4,0,0,0-.477,0,.706.706,0,0,0-.278.537V97.27a.716.716,0,0,0,.265.465.374.374,0,0,0,.477,0,.818.818,0,0,0,.256-.582v-.689h.817v.451a2.108,2.108,0,0,1-.8,1.713l-.013.007a1.035,1.035,0,0,1-.133.063l-.512,1.161-.708-.535.311-.7a1.7,1.7,0,0,1-.772-1.412V93.446a1.6,1.6,0,0,1,.817-1.586,1.16,1.16,0,0,1,1.011,0A1.85,1.85,0,0,1,26.4,93.439Z" transform="translate(-13.594 -90.726)"/>
        <path id="Path_46" data-name="Path 46" d="M34.319,93.465V93.9H33.5V93.25a.752.752,0,0,0-.256-.546.394.394,0,0,0-.477,0,.723.723,0,0,0-.278.546v4.188a.625.625,0,0,0,.265.413.463.463,0,0,0,.224.074.343.343,0,0,0,.047,0l.024,0a.387.387,0,0,0,.19-.072.7.7,0,0,0,.257-.517v-.613h0v-.477h-.4V95.3h1.212v1.826a1.761,1.761,0,0,1-.808,1.514l-.009,0,0,0a1.206,1.206,0,0,1-1,.006l0,0-.009,0a1.47,1.47,0,0,1-.808-1.268V93.473a1.626,1.626,0,0,1,.817-1.612,1.146,1.146,0,0,1,1.011,0A1.891,1.891,0,0,1,34.319,93.465Z" transform="translate(-18.129 -90.726)"/>
        <rect id="Rectangle_43" data-name="Rectangle 43" width="0.622" height="0.814" transform="translate(7.274)"/>
        <rect id="Rectangle_44" data-name="Rectangle 44" width="0.622" height="0.814" transform="translate(8.285)"/>
      </g>
    </g>
  </g>
</svg>
