<svg id="Artwork_22" data-name="Artwork 22" xmlns="http://www.w3.org/2000/svg" width="70.645" height="47.346" viewBox="0 0 70.645 47.346">
  <g id="Group_64" data-name="Group 64" transform="translate(0)">
    <g id="Group_60" data-name="Group 60" transform="translate(25.015)">
      <path id="Path_61" data-name="Path 61" d="M79.895,25.794v.246h-.328a.268.268,0,0,0-.242.27l0,1.423c0,1.993-2.185,1.885-2.185,1.885v1.065a.5.5,0,0,0,.423.492h.37v.218H75.523v-.218h.37a.5.5,0,0,0,.423-.492V29.617s-2.186.109-2.186-1.885l0-1.423a.268.268,0,0,0-.242-.27h-.328v-.246h.573s.847-.027.847,1.174v1.284a1.178,1.178,0,0,0,1.339,1.12V26.477s0-.492-.71-.437v-.246h2.241v.246c-.71-.055-.71.437-.71.437v2.895a1.177,1.177,0,0,0,1.338-1.12V26.968c0-1.2.847-1.174.847-1.174Z" transform="translate(-66.401 -14.513)" fill="#fff"/>
      <path id="Path_62" data-name="Path 62" d="M77.845,18.79s-7.817,4.268-7.95,13.3H68.268V18.524a4.842,4.842,0,1,0-1.491,0V32.087H65.151c-.133-9.029-7.954-13.3-7.954-13.3L60.978,0H74.067Z" transform="translate(-57.197)" fill="#fff"/>
    </g>
    <g id="Group_63" data-name="Group 63" transform="translate(0 38.215)">
      <g id="Group_61" data-name="Group 61" transform="translate(19.029 1.054)">
        <path id="Path_63" data-name="Path 63" d="M78.328,92.938a1.358,1.358,0,0,0,.469-1.131V91.07s-.125-1.068-.959-1.281H76.252v7.006h.817v-3.11l.654.01s.3.059.371.649a2.171,2.171,0,0,1,.013.244c0,.09-.007.288-.007.288V96.77h.817V94.059A1.789,1.789,0,0,0,78.328,92.938Zm-.767-.3h-.492V90.706h.492s.4.127.4.935S77.561,92.637,77.561,92.637Z" transform="translate(-61.932 -89.789)" fill="#fff"/>
        <path id="Path_64" data-name="Path 64" d="M101.313,92.938a1.358,1.358,0,0,0,.468-1.131V91.07s-.125-1.068-.959-1.281H99.236v7.006h.817v-3.11l.655.01s.3.059.37.649a2.073,2.073,0,0,1,.013.244c0,.09-.007.288-.007.288V96.77h.817V94.059A1.791,1.791,0,0,0,101.313,92.938Zm-.767-.3h-.492V90.706h.492s.4.127.4.935S100.545,92.637,100.545,92.637Z" transform="translate(-74.864 -89.789)" fill="#fff"/>
        <path id="Path_65" data-name="Path 65" d="M86.28,95.828v.983H84.045V89.789h.817v6.039Z" transform="translate(-66.317 -89.789)" fill="#fff"/>
        <path id="Path_66" data-name="Path 66" d="M62.893,90.852l-1.546,4.879h1.586v1.064H60.416V95.731h0l1.593-4.879H60.416V89.789h2.517v.938Z" transform="translate(-53.022 -89.789)" fill="#fff"/>
        <path id="Path_67" data-name="Path 67" d="M46.494,89.791l-1.108,3.5v3.519H44.57V93.146l-1.061-3.354h.884L45,91.716l.609-1.925Z" transform="translate(-43.509 -89.79)" fill="#fff"/>
        <path id="Path_68" data-name="Path 68" d="M53.939,89.791h-.89l-1.017,7.021h.832l.145-1h.97l.145,1h.832Zm-.775,4.953.331-2.282.33,2.282Z" transform="translate(-48.304 -89.79)" fill="#fff"/>
        <path id="Path_69" data-name="Path 69" d="M69.775,89.789h-.89l-1.018,7.022H68.7l.145-1h.97l.145,1h.832ZM69,94.742l.331-2.282.33,2.282Z" transform="translate(-57.215 -89.789)" fill="#fff"/>
        <path id="Path_70" data-name="Path 70" d="M92.76,89.789h-.89l-1.017,7.022h.832l.145-1h.97l.145,1h.832Zm-.775,4.953.33-2.282.331,2.282Z" transform="translate(-70.147 -89.789)" fill="#fff"/>
      </g>
      <path id="Path_71" data-name="Path 71" d="M121.8,89.9a1.2,1.2,0,0,0-1.011,0,1.539,1.539,0,0,0-.817,1.53v3.582a1.681,1.681,0,0,0,.817,1.661,1.114,1.114,0,0,0,1.011,0,1.973,1.973,0,0,0,.817-1.653v-3.6A1.76,1.76,0,0,0,121.8,89.9Zm0,5.343a.782.782,0,0,1-.256.562.385.385,0,0,1-.477,0,.755.755,0,0,1-.278-.562V91.221a.672.672,0,0,1,.278-.518.41.41,0,0,1,.477,0,.7.7,0,0,1,.256.518Z" transform="translate(-67.501 -88.734)" fill="#fff"/>
      <path id="Path_72" data-name="Path 72" d="M154.324,94.714a2.087,2.087,0,0,1,.038.471,4.008,4.008,0,0,1-.038.485s-.213,1.143-1.046,1.143h-.648a1.293,1.293,0,0,1-.923-1.137,9.149,9.149,0,0,1,0-1.136h.851s-.223,1.288.486,1.288c.593,0,.587-.8.5-1.1-.106-.358-.3-.625-.995-1.363a2.7,2.7,0,0,1-.88-1.589,3.813,3.813,0,0,1-.032-.469c0-.106.032-.421.032-.421.126-.81.576-1.029.876-1.082a5.206,5.206,0,0,1,.639-.013c.779,0,.922.939.942,1.058.027.155.023.756.023.756l-.71-.008s.035-1.042-.52-1.042c-.663,0-.623.946-.532,1.281a3.865,3.865,0,0,0,.949,1.312A3.3,3.3,0,0,1,154.324,94.714Z" transform="translate(-85.319 -88.736)" fill="#fff"/>
      <path id="Path_73" data-name="Path 73" d="M159.566,97.818" transform="translate(-89.78 -93.252)" fill="#fff"/>
      <path id="Path_74" data-name="Path 74" d="M138.153,91.486v.423h-.817v-.636a.736.736,0,0,0-.256-.537.4.4,0,0,0-.477,0,.706.706,0,0,0-.278.537v4.045a.716.716,0,0,0,.265.466.375.375,0,0,0,.477,0,.819.819,0,0,0,.256-.582v-.69h.817v.451a2.108,2.108,0,0,1-.8,1.713l-.014.007a1.076,1.076,0,0,1-1,.007l-.013-.007a1.646,1.646,0,0,1-.8-1.428V91.493a1.6,1.6,0,0,1,.817-1.587,1.16,1.16,0,0,1,1.011,0A1.85,1.85,0,0,1,138.153,91.486Z" transform="translate(-76.243 -88.734)" fill="#fff"/>
      <path id="Path_75" data-name="Path 75" d="M115.4,95.829v.983h-2.235V89.791h.817v6.038Z" transform="translate(-63.671 -88.736)" fill="#fff"/>
      <path id="Path_76" data-name="Path 76" d="M130.381,89.791v7.021h-.76l-.05-.16-1.038-3.72v3.88h-.817V89.791h.817l.008.027,1.023,3.689V89.791Z" transform="translate(-71.859 -88.736)" fill="#fff"/>
      <rect id="Rectangle_45" data-name="Rectangle 45" width="0.817" height="6.986" transform="translate(69.828 1.054)" fill="#fff"/>
      <path id="Path_77" data-name="Path 77" d="M145.16,89.789h-.89l-1.018,7.022h.832l.145-1h.97l.145,1h.832Zm-.775,4.953.331-2.282.33,2.282Z" transform="translate(-80.602 -88.734)" fill="#fff"/>
      <g id="Group_62" data-name="Group 62">
        <path id="Path_78" data-name="Path 78" d="M2.724,89.7v.81H1.771v6.211H.954V90.509H0V89.7Z" transform="translate(0 -88.683)" fill="#fff"/>
        <path id="Path_79" data-name="Path 79" d="M17.3,89.812a1.2,1.2,0,0,0-1.011,0,1.539,1.539,0,0,0-.817,1.53v3.582a1.681,1.681,0,0,0,.817,1.661,1.114,1.114,0,0,0,1.011,0,1.972,1.972,0,0,0,.817-1.653v-3.6A1.76,1.76,0,0,0,17.3,89.812Zm0,5.343a.782.782,0,0,1-.256.562.385.385,0,0,1-.477,0,.754.754,0,0,1-.278-.562V91.13a.672.672,0,0,1,.278-.518.411.411,0,0,1,.477,0,.7.7,0,0,1,.256.518Z" transform="translate(-8.707 -88.683)" fill="#fff"/>
        <path id="Path_80" data-name="Path 80" d="M9.763,89.7H7.926v7.021h.817V93.589h1.02s.722-.216.722-1.538V91.022S10.492,89.947,9.763,89.7Zm-.358,3.076H8.743V90.513h.662s.358.225.358,1.166S9.406,92.774,9.406,92.774Z" transform="translate(-4.46 -88.683)" fill="#fff"/>
        <path id="Path_81" data-name="Path 81" d="M25.867,91.4v.423H25.05v-.636a.735.735,0,0,0-.256-.537.4.4,0,0,0-.477,0,.7.7,0,0,0-.278.537v4.044a.715.715,0,0,0,.265.465.374.374,0,0,0,.477,0,.819.819,0,0,0,.256-.582v-.689h.817v.451a2.107,2.107,0,0,1-.8,1.713l-.014.007a.957.957,0,0,1-.133.063l-.512,1.161-.708-.534.311-.705a1.7,1.7,0,0,1-.772-1.411V91.4a1.6,1.6,0,0,1,.817-1.586,1.16,1.16,0,0,1,1.011,0A1.849,1.849,0,0,1,25.867,91.4Z" transform="translate(-13.065 -88.683)" fill="#fff"/>
        <path id="Path_82" data-name="Path 82" d="M33.613,91.422v.431H32.8v-.646a.753.753,0,0,0-.255-.546.4.4,0,0,0-.477,0,.722.722,0,0,0-.279.546v4.188a.625.625,0,0,0,.265.413.466.466,0,0,0,.224.074.337.337,0,0,0,.047,0l.024,0a.385.385,0,0,0,.19-.072.7.7,0,0,0,.257-.517v-.612h0V94.2H32.4V93.26h1.212v1.826a1.76,1.76,0,0,1-.808,1.514l-.01,0,0,0a1.206,1.206,0,0,1-1,.007l0,0-.009,0a1.47,1.47,0,0,1-.808-1.268V91.43a1.626,1.626,0,0,1,.817-1.611,1.146,1.146,0,0,1,1.011,0A1.89,1.89,0,0,1,33.613,91.422Z" transform="translate(-17.424 -88.683)" fill="#fff"/>
        <rect id="Rectangle_46" data-name="Rectangle 46" width="0.622" height="0.814" transform="translate(7.274)" fill="#fff"/>
        <rect id="Rectangle_47" data-name="Rectangle 47" width="0.622" height="0.814" transform="translate(8.285)" fill="#fff"/>
      </g>
    </g>
  </g>
</svg>
