<?xml version="1.0" encoding="utf-8"?>
<!-- Generator: Adobe Illustrator 27.7.0, SVG Export Plug-In . SVG Version: 6.00 Build 0)  -->
<svg version="1.1" id="Artwork_23" xmlns="http://www.w3.org/2000/svg" xmlns:xlink="http://www.w3.org/1999/xlink" x="0px" y="0px"
	 viewBox="0 0 51.7 54.6" style="enable-background:new 0 0 51.7 54.6;" xml:space="preserve">
<style type="text/css">
	.st0{fill:#FFFFFF;}
	.st1{fill:#A0144F;}
	.st2{display:none;fill:#FFFFFF;}
</style>
<g id="tpöçg-s">
	<g>
		<g>
			<path class="st0" d="M9.3,45.9v1.5H7c0,0-2.8,0-3.1-2.9v-5.6h-3v-1.5h8.1v1.5H5.5v5c0,2.2,2.1,2.1,2.1,2.1H9.3z"/>
		</g>
		<g>
			<path class="st0" d="M14.3,37.3H9.8v13.4h1.6v-3.4h2.9c2.6,0,4.8-2.2,4.8-5C19.1,39.6,16.9,37.3,14.3,37.3z M14.3,45.9h-2.9V39
				h2.9c1.7,0.1,3,1.6,3,3.4S16,45.7,14.3,45.9z"/>
		</g>
		<g>
			<path class="st0" d="M46.4,37.3c-2.6,0-4.8,2.2-4.8,5c0,2.8,2.1,5,4.8,5h2.9c-0.1,2-2.1,1.9-2.1,1.9h-1.7v1.5h2.3
				c0,0,0.7,0,1.5-0.4c0.7-0.4,1.5-1.1,1.6-2.5V37.3H46.4z M49.3,45.9h-2.9c-1.7-0.1-3-1.6-3-3.4s1.3-3.3,3-3.4h2.9V45.9z"/>
		</g>
		<g>
			<path class="st0" d="M25.3,37.3c-2.9,0-5.3,2.2-5.3,5c0,2.8,2.4,5,5.3,5c2.9,0,5.3-2.2,5.3-5C30.6,39.6,28.2,37.3,25.3,37.3z
				 M25.3,45.8c-2,0-3.6-1.5-3.6-3.4c0-1.9,1.6-3.4,3.6-3.4c2,0,3.6,1.5,3.6,3.4C28.9,44.2,27.3,45.8,25.3,45.8z"/>
		</g>
		<g>
			<path class="st0" d="M37,45.8c-1.9,0-3.4-1.5-3.4-3.4c0-1.9,1.5-3.4,3.4-3.4c1.1,0,2.1,0.5,2.7,1.4l1.3-0.9
				c-0.9-1.3-2.4-2.1-4.1-2.1c-2.8,0-5,2.2-5,5c0,2.8,2.2,5,5,5c1.6,0,3.1-0.8,4-2l-1.3-0.9C39.1,45.2,38.1,45.8,37,45.8z"/>
		</g>
		<g>
			<ellipse class="st0" cx="23" cy="35.7" rx="0.8" ry="0.9"/>
		</g>
		<g>
			<ellipse class="st0" cx="27.4" cy="35.7" rx="0.8" ry="0.9"/>
		</g>
		<g>
			<ellipse class="st0" cx="40.6" cy="48.7" rx="0.8" ry="0.9"/>
		</g>
		<g>
			<path class="st0" d="M13.2,48.5h-0.3v1h-0.1v-1h-0.3v-0.1h0.8V48.5z"/>
			<path class="st0" d="M13.8,49.4c-0.1,0.1-0.1,0.1-0.2,0.1c-0.2,0-0.3-0.1-0.3-0.3v-0.5h0.1v0.5c0,0.1,0,0.1,0,0.1
				c0,0,0.1,0,0.1,0c0.1,0,0.1,0,0.2-0.1v-0.6H14v0.8h-0.1V49.4z M13.6,48.6h-0.1v-0.2h0.1V48.6z M13.9,48.6h-0.1v-0.2h0.1V48.6z"/>
			<path class="st0" d="M14.6,48.8C14.5,48.8,14.5,48.8,14.6,48.8c-0.2,0-0.2,0-0.3,0.1v0.6h-0.1v-0.8h0.1v0.1
				c0.1-0.1,0.1-0.1,0.2-0.1c0,0,0,0,0.1,0V48.8z"/>
			<path class="st0" d="M15.3,49.5h-0.2l-0.2-0.4l-0.1,0.1v0.3h-0.1v-1.1h0.1V49l0.3-0.3h0.2L15,49L15.3,49.5z"/>
			<path class="st0" d="M15.8,48.4h0.4c0.1,0,0.2,0,0.2,0c0.1,0,0.1,0.1,0.1,0.1c0,0.1,0.1,0.1,0.1,0.2c0,0.1,0,0.2-0.1,0.3
				c-0.1,0.1-0.2,0.1-0.3,0.1h-0.3v0.4h-0.1V48.4z M15.9,48.9h0.3c0.1,0,0.2,0,0.2-0.1s0.1-0.1,0.1-0.2c0,0,0-0.1,0-0.1
				c0,0,0-0.1-0.1-0.1c0,0-0.1,0-0.1,0h-0.3V48.9z"/>
			<path class="st0" d="M17,49.5c-0.2,0-0.3-0.1-0.3-0.3h0.1c0,0.1,0.1,0.1,0.2,0.1c0.1,0,0.1,0,0.1,0s0-0.1,0-0.1s0-0.1,0-0.1
				s-0.1,0-0.2-0.1s-0.2,0-0.2-0.1s-0.1-0.1-0.1-0.2c0-0.1,0-0.1,0.1-0.2c0.1,0,0.1-0.1,0.2-0.1c0.2,0,0.3,0.1,0.3,0.2h-0.1
				c0-0.1-0.1-0.1-0.2-0.1c0,0-0.1,0-0.1,0c0,0,0,0,0,0.1c0,0,0,0.1,0,0.1c0,0,0.1,0,0.2,0.1c0.1,0,0.2,0.1,0.2,0.1
				c0,0,0.1,0.1,0.1,0.2c0,0.1,0,0.1-0.1,0.2C17.2,49.5,17.1,49.5,17,49.5z"/>
			<path class="st0" d="M17.7,48.5h-0.1v-0.2h0.1V48.5z M17.7,49.5h-0.1v-0.8h0.1V49.5z"/>
			<path class="st0" d="M18.5,49.5h-0.2l-0.2-0.4L18,49.2v0.3h-0.1v-1.1H18V49l0.3-0.3h0.2L18.2,49L18.5,49.5z"/>
			<path class="st0" d="M18.9,48.7c0.1,0,0.2,0,0.3,0.1s0.1,0.2,0.1,0.3c0,0.1,0,0.2-0.1,0.3s-0.2,0.1-0.3,0.1c-0.1,0-0.2,0-0.3-0.1
				s-0.1-0.2-0.1-0.3c0-0.1,0-0.2,0.1-0.3S18.8,48.7,18.9,48.7z M18.9,49.4c0.1,0,0.1,0,0.2-0.1c0-0.1,0.1-0.1,0.1-0.2
				c0-0.1,0-0.2-0.1-0.2c0-0.1-0.1-0.1-0.2-0.1c-0.1,0-0.1,0-0.2,0.1c0,0.1-0.1,0.1-0.1,0.2c0,0.1,0,0.2,0.1,0.2
				C18.8,49.4,18.8,49.4,18.9,49.4z"/>
			<path class="st0" d="M19.6,49.5h-0.1v-1.1h0.1V49.5z"/>
			<path class="st0" d="M20.1,48.7c0.1,0,0.2,0,0.3,0.1s0.1,0.2,0.1,0.3c0,0.1,0,0.2-0.1,0.3s-0.2,0.1-0.3,0.1c-0.1,0-0.2,0-0.3-0.1
				s-0.1-0.2-0.1-0.3c0-0.1,0-0.2,0.1-0.3S20,48.7,20.1,48.7z M20.1,49.4c0.1,0,0.1,0,0.2-0.1c0-0.1,0.1-0.1,0.1-0.2
				c0-0.1,0-0.2-0.1-0.2c0-0.1-0.1-0.1-0.2-0.1c-0.1,0-0.1,0-0.2,0.1c0,0.1-0.1,0.1-0.1,0.2c0,0.1,0,0.2,0.1,0.2
				C19.9,49.4,20,49.4,20.1,49.4z"/>
			<path class="st0" d="M20.7,49.5c0,0.1,0,0.2-0.1,0.2c0,0-0.1,0.1-0.1,0.1c0,0-0.1,0-0.1,0v-0.1c0,0,0.1,0,0.1,0c0,0,0,0,0.1,0
				c0,0,0-0.1,0-0.1v-0.8h0.1V49.5z M20.7,48.5h-0.1v-0.2h0.1V48.5z"/>
			<path class="st0" d="M21.1,48.5h-0.1v-0.2h0.1V48.5z M21.1,49.5h-0.1v-0.8h0.1V49.5z"/>
			<path class="st0" d="M22.1,48.4c0.1,0,0.3,0.1,0.4,0.2c0.1,0.1,0.1,0.2,0.1,0.4s0,0.3-0.1,0.4c-0.1,0.1-0.2,0.2-0.4,0.2
				c-0.1,0-0.3-0.1-0.4-0.2c-0.1-0.1-0.1-0.2-0.1-0.4c0-0.2,0-0.3,0.1-0.4C21.9,48.4,22,48.4,22.1,48.4z M22.1,49.4
				c0.1,0,0.2,0,0.3-0.1c0.1-0.1,0.1-0.2,0.1-0.3s0-0.3-0.1-0.3c-0.1-0.1-0.2-0.1-0.3-0.1c-0.1,0-0.2,0-0.3,0.1s-0.1,0.2-0.1,0.3
				c0,0.1,0,0.2,0.1,0.3C21.9,49.3,22,49.4,22.1,49.4z M22.1,48.3h-0.1v-0.2h0.1V48.3z M22.3,48.3h-0.1v-0.2h0.1V48.3z"/>
			<path class="st0" d="M23.4,49.4c0,0.3-0.1,0.4-0.3,0.4c-0.1,0-0.2,0-0.2-0.1c-0.1,0-0.1-0.1-0.1-0.2h0.1c0,0.1,0.1,0.1,0.2,0.1
				c0.1,0,0.1,0,0.1-0.1c0,0,0.1-0.1,0.1-0.2v0c-0.1,0.1-0.1,0.1-0.2,0.1c-0.1,0-0.2,0-0.2-0.1s-0.1-0.2-0.1-0.3
				c0-0.1,0-0.2,0.1-0.3s0.1-0.1,0.2-0.1c0.1,0,0.2,0,0.2,0.1v-0.1h0.1V49.4z M23.3,49.3v-0.4c-0.1-0.1-0.1-0.1-0.2-0.1
				c-0.1,0-0.1,0-0.1,0.1c0,0.1-0.1,0.1-0.1,0.2c0,0.1,0,0.2,0,0.2c0,0.1,0.1,0.1,0.1,0.1C23.1,49.4,23.2,49.4,23.3,49.3z
				 M23.3,48.4c0,0.1,0,0.1-0.1,0.1s-0.1,0.1-0.1,0.1c-0.1,0-0.1,0-0.1-0.1c0,0-0.1-0.1-0.1-0.1H23c0,0.1,0.1,0.1,0.1,0.1
				C23.2,48.5,23.2,48.4,23.3,48.4L23.3,48.4z"/>
			<path class="st0" d="M24,48.8C24,48.8,24,48.8,24,48.8c-0.2,0-0.2,0-0.3,0.1v0.6h-0.1v-0.8h0.1v0.1c0.1-0.1,0.1-0.1,0.2-0.1
				c0,0,0,0,0.1,0V48.8z"/>
			<path class="st0" d="M24.4,49.5c-0.1,0-0.2,0-0.3-0.1c-0.1-0.1-0.1-0.2-0.1-0.3c0-0.1,0-0.2,0.1-0.3s0.2-0.1,0.3-0.1
				c0.1,0,0.2,0,0.3,0.1s0.1,0.2,0.1,0.3v0h-0.6c0,0.1,0,0.2,0.1,0.2s0.1,0.1,0.2,0.1c0,0,0.1,0,0.1,0s0.1-0.1,0.1-0.1h0.1
				c0,0.1,0,0.1-0.1,0.2C24.6,49.5,24.5,49.5,24.4,49.5z M24.6,49c0-0.1,0-0.1-0.1-0.2c0,0-0.1-0.1-0.1-0.1c-0.1,0-0.1,0-0.1,0.1
				c0,0-0.1,0.1-0.1,0.2H24.6z"/>
			<path class="st0" d="M25.1,48.8c0.1-0.1,0.1-0.1,0.2-0.1c0.2,0,0.3,0.1,0.3,0.3v0.5h-0.1V49c0-0.1,0-0.1,0-0.1c0,0-0.1,0-0.1,0
				c-0.1,0-0.1,0-0.2,0.1v0.6h-0.1v-0.8h0.1V48.8z"/>
			<path class="st0" d="M26.1,49.5c-0.1,0-0.2,0-0.3-0.1s-0.1-0.2-0.1-0.3c0-0.1,0-0.2,0.1-0.3s0.2-0.1,0.3-0.1c0.1,0,0.2,0,0.2,0.1
				c0.1,0,0.1,0.1,0.1,0.2h-0.1c0,0,0-0.1-0.1-0.1c0,0-0.1,0-0.1,0c-0.1,0-0.1,0-0.2,0.1c0,0.1-0.1,0.1-0.1,0.2c0,0.1,0,0.2,0.1,0.2
				c0,0.1,0.1,0.1,0.2,0.1c0,0,0.1,0,0.1,0c0,0,0-0.1,0.1-0.1h0.1c0,0.1,0,0.1-0.1,0.2C26.2,49.5,26.1,49.5,26.1,49.5z"/>
			<path class="st0" d="M26.6,48.5h-0.1v-0.2h0.1V48.5z M26.6,49.5h-0.1v-0.8h0.1V49.5z"/>
			<path class="st0" d="M27,49.5h-0.1v-1.1H27V49.5z"/>
			<path class="st0" d="M27.5,49.5c-0.1,0-0.2,0-0.3-0.1c-0.1-0.1-0.1-0.2-0.1-0.3c0-0.1,0-0.2,0.1-0.3c0.1-0.1,0.2-0.1,0.3-0.1
				c0.1,0,0.2,0,0.3,0.1c0.1,0.1,0.1,0.2,0.1,0.3v0h-0.6c0,0.1,0,0.2,0.1,0.2s0.1,0.1,0.2,0.1c0,0,0.1,0,0.1,0s0.1-0.1,0.1-0.1h0.1
				c0,0.1,0,0.1-0.1,0.2C27.7,49.5,27.6,49.5,27.5,49.5z M27.7,49c0-0.1,0-0.1-0.1-0.2c0,0-0.1-0.1-0.1-0.1c-0.1,0-0.1,0-0.1,0.1
				s-0.1,0.1-0.1,0.2H27.7z"/>
			<path class="st0" d="M28.4,48.8C28.4,48.8,28.3,48.8,28.4,48.8c-0.2,0-0.2,0-0.3,0.1v0.6H28v-0.8h0.1v0.1
				c0.1-0.1,0.1-0.1,0.2-0.1c0,0,0,0,0.1,0V48.8z"/>
			<path class="st0" d="M28.6,48.5h-0.1v-0.2h0.1V48.5z M28.6,49.5h-0.1v-0.8h0.1V49.5z"/>
			<path class="st0" d="M29.6,49.5c-0.1,0-0.2-0.1-0.3-0.2c-0.1-0.1-0.1-0.2-0.1-0.4c0-0.2,0-0.3,0.1-0.4s0.2-0.2,0.4-0.2
				c0.1,0,0.2,0,0.3,0.1c0.1,0.1,0.1,0.2,0.1,0.3H30c0-0.1,0-0.1-0.1-0.2s-0.1-0.1-0.2-0.1c-0.1,0-0.2,0-0.3,0.1
				c-0.1,0.1-0.1,0.2-0.1,0.3c0,0.1,0,0.3,0.1,0.3c0.1,0.1,0.1,0.1,0.3,0.1c0.1,0,0.1,0,0.2-0.1s0.1-0.1,0.1-0.2h0.1
				c0,0.1,0,0.2-0.1,0.3C29.9,49.5,29.8,49.5,29.6,49.5L29.6,49.5c0.2,0.1,0.2,0.1,0.2,0.2c0,0.1-0.1,0.1-0.2,0.1c0,0,0,0-0.1,0
				v-0.1c0,0,0.1,0,0.1,0c0.1,0,0.1,0,0.1-0.1c0,0,0-0.1-0.1-0.1V49.5z"/>
			<path class="st0" d="M30.8,49.4c-0.1,0.1-0.2,0.1-0.3,0.1c-0.1,0-0.1,0-0.2-0.1c0,0-0.1-0.1-0.1-0.2c0-0.2,0.2-0.3,0.5-0.3h0.1
				c0-0.1,0-0.1,0-0.1c0,0,0,0,0-0.1c0,0-0.1,0-0.1,0c-0.1,0-0.2,0-0.2,0.1h-0.1c0-0.2,0.1-0.2,0.3-0.2c0.1,0,0.2,0,0.2,0.1
				c0.1,0,0.1,0.1,0.1,0.2v0.5L30.8,49.4L30.8,49.4z M30.8,49.3v-0.2h-0.1c-0.2,0-0.3,0.1-0.3,0.2c0,0,0,0.1,0,0.1c0,0,0.1,0,0.1,0
				C30.6,49.4,30.6,49.4,30.8,49.3C30.7,49.3,30.7,49.3,30.8,49.3z"/>
			<path class="st0" d="M31.2,49.5h-0.1v-1.1h0.1V49.5z"/>
			<path class="st0" d="M31.6,49.5h-0.1v-0.8h0.1V49.5z"/>
			<path class="st0" d="M32,49.5c-0.2,0-0.3-0.1-0.3-0.3h0.1c0,0.1,0.1,0.1,0.2,0.1c0.1,0,0.1,0,0.1,0c0,0,0-0.1,0-0.1s0-0.1,0-0.1
				c0,0-0.1,0-0.2-0.1c-0.1,0-0.2,0-0.2-0.1c0,0-0.1-0.1-0.1-0.2c0-0.1,0-0.1,0.1-0.2c0.1,0,0.1-0.1,0.2-0.1c0.2,0,0.3,0.1,0.3,0.2
				h-0.1c0-0.1-0.1-0.1-0.2-0.1c0,0-0.1,0-0.1,0c0,0,0,0,0,0.1c0,0,0,0.1,0,0.1c0,0,0.1,0,0.2,0.1c0.1,0,0.2,0.1,0.2,0.1
				c0,0,0.1,0.1,0.1,0.2c0,0.1,0,0.1-0.1,0.2c0,0-0.1,0.1-0.2,0.1v0c0.1,0,0.1,0.1,0.1,0.1c0,0.1-0.1,0.1-0.2,0.1c0,0,0,0-0.1,0
				v-0.1c0,0,0.1,0,0.1,0c0.1,0,0.1,0,0.1-0.1c0,0,0-0.1-0.1-0.1V49.5z"/>
			<path class="st0" d="M33.6,49.5h-0.1V49c0-0.1,0-0.1,0-0.1c0,0,0,0-0.1,0c-0.1,0-0.1,0-0.2,0.1v0.6H33V49c0-0.1,0-0.1,0-0.1
				c0,0,0,0-0.1,0c-0.1,0-0.1,0-0.2,0.1v0.6h-0.1v-0.8h0.1v0.1c0.1-0.1,0.1-0.1,0.2-0.1c0.1,0,0.2,0,0.2,0.1
				c0.1-0.1,0.1-0.1,0.1-0.1c0,0,0.1,0,0.1,0c0.2,0,0.2,0.1,0.2,0.3V49.5z"/>
			<path class="st0" d="M34.2,49.4c-0.1,0.1-0.2,0.1-0.3,0.1c-0.1,0-0.1,0-0.2-0.1c0,0-0.1-0.1-0.1-0.2c0-0.2,0.2-0.3,0.5-0.3h0.1
				c0-0.1,0-0.1,0-0.1c0,0,0,0,0-0.1c0,0-0.1,0-0.1,0c-0.1,0-0.2,0-0.2,0.1h-0.1c0-0.2,0.1-0.2,0.3-0.2c0.1,0,0.2,0,0.2,0.1
				c0.1,0,0.1,0.1,0.1,0.2v0.5L34.2,49.4L34.2,49.4z M34.2,49.3v-0.2h-0.1c-0.2,0-0.3,0.1-0.3,0.2c0,0,0,0.1,0,0.1c0,0,0.1,0,0.1,0
				C34.1,49.4,34.1,49.4,34.2,49.3C34.2,49.3,34.2,49.3,34.2,49.3z"/>
			<path class="st0" d="M35.5,49.5c-0.2,0-0.3-0.1-0.4-0.2c-0.1-0.1-0.1-0.2-0.1-0.4c0-0.2,0-0.3,0.1-0.4c0.1-0.1,0.2-0.2,0.4-0.2
				c0.1,0,0.2,0,0.3,0.1c0.1,0.1,0.1,0.1,0.1,0.3h-0.1c0-0.1,0-0.1-0.1-0.2c-0.1,0-0.1-0.1-0.2-0.1c-0.1,0-0.2,0-0.3,0.1
				s-0.1,0.2-0.1,0.3c0,0.1,0,0.3,0.1,0.3s0.2,0.1,0.3,0.1c0.2,0,0.3-0.1,0.3-0.2v-0.2h-0.3v-0.1h0.4v0.6h-0.1l0-0.1
				C35.7,49.5,35.6,49.5,35.5,49.5z"/>
			<path class="st0" d="M36.5,48.8C36.5,48.8,36.5,48.8,36.5,48.8c-0.2,0-0.2,0-0.3,0.1v0.6h-0.1v-0.8h0.1v0.1
				c0.1-0.1,0.1-0.1,0.2-0.1c0,0,0,0,0.1,0V48.8z"/>
			<path class="st0" d="M37.1,49.4c-0.1,0.1-0.1,0.1-0.2,0.1c-0.2,0-0.3-0.1-0.3-0.3v-0.5h0.1v0.5c0,0.1,0,0.1,0,0.1
				c0,0,0.1,0,0.1,0c0.1,0,0.1,0,0.2-0.1v-0.6h0.1v0.8h-0.1V49.4z"/>
			<path class="st0" d="M37.6,48.8c0.1-0.1,0.1-0.1,0.2-0.1c0.1,0,0.2,0,0.2,0.1s0.1,0.2,0.1,0.3c0,0.1,0,0.2-0.1,0.3
				s-0.1,0.1-0.2,0.1c-0.1,0-0.2,0-0.2-0.1v0.1h-0.1v-1.1h0.1V48.8z M37.6,49.3c0.1,0.1,0.1,0.1,0.2,0.1c0.1,0,0.1,0,0.1-0.1
				c0-0.1,0.1-0.1,0.1-0.2c0-0.1,0-0.2,0-0.2c0-0.1-0.1-0.1-0.1-0.1c-0.1,0-0.1,0-0.2,0.1V49.3z"/>
			<path class="st0" d="M38.7,49.4c-0.1,0.1-0.1,0.1-0.2,0.1c-0.2,0-0.3-0.1-0.3-0.3v-0.5h0.1v0.5c0,0.1,0,0.1,0,0.1
				c0,0,0.1,0,0.1,0c0.1,0,0.1,0,0.2-0.1v-0.6h0.1v0.8h-0.1V49.4z"/>
		</g>
	</g>
	<g>
		<path class="st1" d="M36.5,14.6c0,0.1,0,0.2,0,0.3c0,0.3,0,0.6,0,0.9c0,0.6-0.1,1.2-0.2,1.8c-0.3,1.8-1,3.4-2.1,4.8
			c-0.3,0.4-0.7,0.9-1.1,1.3c-0.4,0.4-0.8,0.8-1.1,1.2c-2.3,2.3-4.6,4.6-6.9,6.9c-0.2,0.2-0.2,0.2-0.4,0c-2.3-2.3-4.6-4.6-6.8-6.8
			c-0.4-0.4-0.8-0.8-1.2-1.2c-1.7-1.7-2.7-3.8-3.2-6.1c-0.1-0.8-0.2-1.6-0.2-2.5c0.1-2.7,1-5,2.8-7.1c0.3-0.3,0.6-0.6,0.9-0.9
			c0,0,0,0,0,0c2.1-1.9,4.9-3.1,7.9-3.1c4.1,0,7.7,2.1,9.8,5.4c0,0,0,0.1,0.1,0.1c0,0.1,0.1,0.1,0.1,0.2c0.7,1.1,1.2,2.4,1.4,3.8
			c0,0.3,0.1,0.5,0.1,0.8C36.5,14.2,36.5,14.4,36.5,14.6z"/>
		<path class="st0" d="M31.1,10.8v0.5h-0.6C30,11.3,30,11.8,30,11.8l0,2.7c0,3.7-4.3,3.5-4.3,3.5v2c0.1,0.9,0.8,0.9,0.8,0.9h0.7v0.4
			h-4.7v-0.4h0.7c0,0,0.7-0.1,0.8-0.9v-2c0,0-4.3,0.2-4.3-3.5l0-2.7c0,0,0-0.5-0.5-0.5h-0.6v-0.5h1.1c0,0,1.7-0.1,1.7,2.2v2.4
			c0,0,0,2.1,2.6,2.1v-5.4c0,0,0-0.9-1.4-0.8v-0.5h4.4v0.5c-1.4-0.1-1.4,0.8-1.4,0.8v5.4c2.6,0,2.6-2.1,2.6-2.1V13
			c0-2.3,1.7-2.2,1.7-2.2H31.1z"/>
	</g>
	<path class="st2" d="M34.6,18.3c0,3.1-1.5,5.9-3.8,7.7c-1.6,1.2-3.6,2-5.8,2c-2.2,0-4.2-0.7-5.8-1.9c-2.3-1.8-3.8-4.5-3.8-7.7
		c0-2.8,1.2-5.3,3.1-7c0,0,0,0,0,0c1.7-1.6,4-2.6,6.6-2.6c3.4,0,6.4,1.8,8.1,4.4c0,0,0,0.1,0.1,0.1c0,0,0.1,0.1,0.1,0.1
		C34.1,14.8,34.6,16.5,34.6,18.3z"/>
</g>
</svg>
