<?xml version="1.0" encoding="UTF-8"?>
<svg id="Layer_1" data-name="Layer 1" xmlns="http://www.w3.org/2000/svg" width="435" height="507.2" xmlns:xlink="http://www.w3.org/1999/xlink" viewBox="0 0 435 507.2">
  <defs>
    <style>
      .cls-1, .cls-2 {
        fill: none;
      }

      .cls-3 {
        fill: #010101;
      }

      .cls-2 {
        clip-path: url(#clippath);
      }
    </style>
    <clipPath id="clippath">
      <rect class="cls-1" y="0" width="435" height="507.2"/>
    </clipPath>
  </defs>
  <g class="cls-2">
    <g id="lonca-s">
      <g>
        <path class="cls-3" d="m186.84,453.96v.23h-.3c-.23.03-.22.25-.22.25v1.32c0,1.85-2.03,1.74-2.03,1.74v.99c.05.43.39.46.39.46h.34v.2h-2.23v-.2h.34s.34-.03.39-.46v-.99s-2.02.1-2.02-1.74v-1.32s0-.23-.23-.25h-.3v-.23h.53s.78-.03.78,1.09v1.19s0,1.04,1.24,1.04v-2.68s0-.46-.66-.4v-.23h2.08v.23c-.66-.05-.66.4-.66.4v2.68c1.24,0,1.24-1.04,1.24-1.04v-1.19c0-1.11.78-1.09.78-1.09h.54Z"/>
        <path class="cls-3" d="m193.47,460.91s-7.24,3.95-7.36,12.31h-1.51v-12.56c2.14-.34,3.77-2.19,3.77-4.43,0-2.47-2-4.48-4.48-4.48s-4.48,2-4.48,4.48c0,2.24,1.65,4.11,3.8,4.43v12.55h-1.51c-.12-8.36-7.36-12.31-7.36-12.31l3.5-17.4h12.12l3.5,17.4h0Z"/>
      </g>
      <g>
        <g>
          <path class="cls-3" d="m183.99,482.78c.21-.16.43-.48.43-1.05v-.68s-.12-.99-.89-1.19h-1.47v6.49h.76v-2.88h.61s.28.06.34.61c0,.07,0,.14,0,.23v2.02h.76v-2.51s-.08-.7-.55-1.04h0Zm-.71-.28h-.46v-1.79h.46s.37.12.37.87-.37.92-.37.92Z"/>
          <path class="cls-3" d="m193.29,482.78c.21-.16.43-.48.43-1.05v-.68s-.12-.99-.89-1.19h-1.47v6.49h.76v-2.88h.61s.28.06.34.61c0,.07,0,.14,0,.23v2.02h.76v-2.51s-.08-.7-.55-1.04h0Zm-.71-.28h-.46v-1.79h.46s.37.12.37.87-.37.92-.37.92Z"/>
          <polygon class="cls-3" points="187.29 485.46 187.29 486.37 185.22 486.37 185.22 479.87 185.98 479.87 185.98 485.46 187.29 485.46"/>
          <polygon class="cls-3" points="177.95 480.85 176.51 485.37 177.98 485.37 177.98 486.35 175.65 486.35 175.65 485.37 175.65 485.37 177.13 480.85 175.65 480.85 175.65 479.87 177.98 479.87 177.98 480.73 177.95 480.85"/>
          <polygon class="cls-3" points="171.57 479.87 170.55 483.11 170.55 486.37 169.79 486.37 169.79 482.97 168.81 479.87 169.63 479.87 170.19 481.65 170.75 479.87 171.57 479.87"/>
          <path class="cls-3" d="m174.02,479.87h-.82l-.94,6.5h.77l.13-.93h.9l.13.93h.77l-.94-6.5Zm-.72,4.59l.31-2.11.31,2.11h-.62Z"/>
          <path class="cls-3" d="m180.44,479.87h-.82l-.94,6.5h.77l.13-.93h.9l.13.93h.77l-.94-6.5Zm-.72,4.59l.31-2.11.31,2.11h-.62Z"/>
          <path class="cls-3" d="m189.74,479.87h-.82l-.94,6.5h.77l.13-.93h.9l.13.93h.77l-.94-6.5Zm-.72,4.59l.31-2.11.31,2.11h-.62Z"/>
        </g>
        <path class="cls-3" d="m201.46,479.97c-.47-.24-.94,0-.94,0,0,0-.76.29-.76,1.42v3.32c0,1.22.76,1.54.76,1.54,0,0,.46.26.94,0,.74-.4.76-1.43.76-1.53h0v-3.32h0c0-.1-.02-1.05-.76-1.42h0Zm0,4.95c0,.32-.24.52-.24.52,0,0-.19.17-.44,0s-.26-.52-.26-.52v-3.73s0-.32.26-.48c.25-.16.44,0,.44,0,0,0,.24.18.24.48v3.73Z"/>
        <path class="cls-3" d="m215.08,484.42c.03.1.04.25.04.44,0,.21-.04.45-.04.45,0,0-.2,1.06-.97,1.06h-.6s-.7-.14-.85-1.05c-.04-.26,0-1.05,0-1.05h.79s-.21,1.19.45,1.19c.55,0,.54-.74.46-1.01-.1-.33-.28-.58-.92-1.26s-.74-1.03-.81-1.47c-.02-.11-.03-.33-.03-.43s.03-.39.03-.39c.12-.75.53-.95.81-1,.15-.03.59-.01.59-.01.72,0,.85.87.87.98.02.14.02.7.02.7h-.66s.03-.97-.48-.97c-.61,0-.58.88-.49,1.19.11.39.52.84.88,1.21.61.64.8,1,.92,1.45v-.03Z"/>
        <path class="cls-3" d="m208.51,481.44h0v.39h-.76v-.59c0-.31-.24-.5-.24-.5,0,0-.19-.16-.44,0s-.26.5-.26.5v3.74c.02.12.08.32.25.43.25.18.44,0,.44,0,0,0,.24-.2.24-.54v-.64h.76v.42s.02,1.14-.74,1.59h0c-.43.24-.85.05-.92,0h0s-.65-.28-.74-1.32v-3.48c0-1.17.76-1.47.76-1.47,0,0,.46-.25.94,0,.74.38.76,1.37.76,1.46h-.03Z"/>
        <polygon class="cls-3" points="199.08 485.46 199.08 486.37 197.01 486.37 197.01 479.87 197.77 479.87 197.77 485.46 199.08 485.46"/>
        <polygon class="cls-3" points="205.37 479.87 205.37 486.37 204.67 486.37 204.62 486.22 203.66 482.77 203.66 486.37 202.9 486.37 202.9 479.87 203.66 479.87 203.67 479.89 204.61 483.31 204.61 479.87 205.37 479.87"/>
        <rect class="cls-3" x="215.84" y="479.87" width=".76" height="6.47"/>
        <path class="cls-3" d="m210.96,479.87h-.82l-.94,6.5h.77l.13-.93h.9l.13.93h.77l-.94-6.5Zm-.72,4.59l.31-2.11.31,2.11h-.62Z"/>
        <g>
          <polygon class="cls-3" points="153.71 479.83 153.71 480.58 152.83 480.58 152.83 486.33 152.07 486.33 152.07 480.58 151.19 480.58 151.19 479.83 153.71 479.83"/>
          <path class="cls-3" d="m159.15,479.93c-.47-.24-.94,0-.94,0,0,0-.76.29-.76,1.42v3.32c0,1.22.76,1.54.76,1.54,0,0,.46.26.94,0,.74-.4.76-1.43.76-1.53h0v-3.32h0c0-.1-.02-1.05-.76-1.42h0Zm0,4.95c0,.32-.24.52-.24.52,0,0-.19.17-.44,0s-.26-.52-.26-.52v-3.73s0-.32.26-.48c.25-.16.44,0,.44,0,0,0,.24.18.24.48v3.73Z"/>
          <path class="cls-3" d="m156.1,479.83h-1.7v6.5h.76v-2.9h.94s.67-.2.67-1.42v-.95s0-1-.67-1.23h0Zm-.33,2.85h-.61v-2.09h.61s.33.21.33,1.08-.33,1.01-.33,1.01Z"/>
          <path class="cls-3" d="m163.04,481.4h0v.39h-.76v-.59c0-.31-.24-.5-.24-.5,0,0-.19-.16-.44,0s-.26.5-.26.5v3.74c.02.12.08.32.25.43.25.18.44,0,.44,0,0,0,.24-.2.24-.54v-.64h.76v.42s.02,1.14-.74,1.59h0s-.08.04-.12.06l-.47,1.07-.66-.49.29-.65c-.13-.07-.63-.4-.72-1.31v-3.48c0-1.16.76-1.47.76-1.47,0,0,.46-.25.94,0,.74.38.76,1.37.76,1.46h-.02Z"/>
          <path class="cls-3" d="m166.18,481.42h0v.4h-.76v-.6c0-.31-.24-.51-.24-.51,0,0-.19-.17-.44,0s-.26.51-.26.51v3.88c.02.11.08.28.25.38.08.05.15.07.21.07h.06c.11-.01.18-.07.18-.07,0,0,.24-.18.24-.48v-.57h0v-.44h-.37v-.87h1.12v1.68h0c0,.09-.02,1.03-.75,1.41h0c-.43.21-.85.04-.93,0h0s-.65-.25-.75-1.17v-3.62c0-1.18.76-1.49.76-1.49,0,0,.46-.25.94,0,.74.39.76,1.39.76,1.48h-.02Z"/>
          <rect class="cls-3" x="157.93" y="478.89" width=".58" height=".75"/>
          <rect class="cls-3" x="158.86" y="478.89" width=".58" height=".75"/>
        </g>
      </g>
    </g>
  </g>
</svg>