<?xml version="1.0" encoding="UTF-8"?>
<svg id="Layer_1" data-name="Layer 1" xmlns="http://www.w3.org/2000/svg" width="435" height="507.2" xmlns:xlink="http://www.w3.org/1999/xlink" viewBox="0 0 435 507.2">
  <defs>
    <style>
      .cls-1, .cls-2, .cls-3 {
        fill: none;
      }

      .cls-2 {
        clip-path: url(#clippath-1);
      }

      .cls-4 {
        fill: #a21d50;
      }

      .cls-5 {
        fill: #231f20;
      }

      .cls-3 {
        clip-path: url(#clippath);
      }
    </style>
    <clipPath id="clippath">
      <rect class="cls-1" x=".25" y="0" width="435" height="507.2"/>
    </clipPath>
    <clipPath id="clippath-1">
      <rect class="cls-1" x="19.01" y="20" width="396.97" height="92.53"/>
    </clipPath>
  </defs>
  <g class="cls-3">
    <g id="w-title-prev">
      <g class="cls-2">
        <g id="Asset_17_1" data-name="Asset 17 1">
          <g id="_2" data-name=" 2">
            <g id="Group">
              <path id="Vector" class="cls-4" d="m403.95,27.25H127.25c-6.64,0-12.03,5.38-12.03,12.02v9.71c0,6.64,5.39,12.02,12.03,12.02h276.7c6.64,0,12.03-5.38,12.03-12.02v-9.71c0-6.64-5.39-12.02-12.03-12.02Z"/>
              <path id="Vector_2" data-name="Vector 2" class="cls-4" d="m403.95,70.76h-166.55c-6.64,0-12.03,5.38-12.03,12.02v9.71c0,6.64,5.39,12.02,12.03,12.02h166.55c6.64,0,12.03-5.38,12.03-12.02v-9.71c0-6.64-5.39-12.02-12.03-12.02Z"/>
              <g id="Vector_3" data-name="Vector 3">
                <path class="cls-5" d="m40.93,59.19v-5.76h-11.48v5.76c0,1-.8,1.8-1.8,1.8s-1.8-.8-1.8-1.8v-22.63c0-5.16,4.21-9.36,9.37-9.36s9.37,4.21,9.37,9.36v22.63c0,1-.85,1.8-1.8,1.8-1,0-1.85-.8-1.85-1.8h-.01Zm0-22.63c0-3.2-2.55-5.76-5.71-5.76s-5.76,2.55-5.76,5.76v13.27h11.48v-13.27h-.01Z"/>
              </g>
              <g id="Vector_4" data-name="Vector 4">
                <path class="cls-5" d="m68.09,60.99c-.55,0-1.15-.3-1.5-.8l-8.67-13.41-3.11,4.45v7.96c0,1-.8,1.8-1.8,1.8s-1.8-.8-1.8-1.8v-30.03c0-.95.8-1.8,1.8-1.8s1.8.85,1.8,1.8v15.77l11.83-16.92c.55-.8,1.7-1,2.51-.45.8.55,1,1.7.45,2.5l-9.47,13.57,9.47,14.57c.55.85.35,1.95-.5,2.5-.3.2-.65.3-1,.3h-.01Z"/>
              </g>
              <g id="Vector_5" data-name="Vector 5">
                <path class="cls-5" d="m75.71,59.19v-30.18c0-1,.8-1.8,1.8-1.8s1.8.8,1.8,1.8v30.19c0,1-.8,1.8-1.8,1.8s-1.8-.8-1.8-1.8h0Z"/>
              </g>
              <g id="Vector_6" data-name="Vector 6">
                <path class="cls-5" d="m87.94,60.99c-1,0-1.8-.8-1.8-1.75v-30.19c0-1,.8-1.8,1.8-1.8s1.81.8,1.81,1.8v28.38h13.33c.95,0,1.81.8,1.81,1.8s-.85,1.75-1.81,1.75h-15.14Z"/>
              </g>
              <g id="Vector_7" data-name="Vector 7">
                <path class="cls-5" d="m25.85,102.72v-30.19c0-1,.8-1.8,1.8-1.8,9.32,0,16.94,7.56,16.94,16.87s-7.62,16.92-16.94,16.92c-1,0-1.8-.8-1.8-1.8h0Zm3.61-1.95c6.46-.85,11.48-6.46,11.48-13.17s-5.01-12.27-11.48-13.17v26.33h0Z"/>
              </g>
              <g id="Vector_8" data-name="Vector 8">
                <path class="cls-5" d="m52.46,104.52c-1,0-1.8-.8-1.8-1.8v-30.19c0-1,.8-1.8,1.8-1.8h15.13c.95,0,1.8.8,1.8,1.8s-.85,1.8-1.8,1.8h-13.33v19.02h13.33c.95,0,1.8.85,1.8,1.85s-.85,1.8-1.8,1.8h-13.33v3.91h13.33c.95,0,1.8.8,1.8,1.8s-.85,1.8-1.8,1.8h-15.13,0Z"/>
              </g>
              <g id="Vector_9" data-name="Vector 9">
                <path class="cls-5" d="m78.37,96.97v5.76c0,1-.8,1.8-1.8,1.8s-1.8-.8-1.8-1.8v-30.19c0-1,.8-1.8,1.8-1.8h15.13c.95,0,1.8.8,1.8,1.8s-.85,1.8-1.8,1.8h-13.33v19.02h13.33c.95,0,1.8.8,1.8,1.8s-.85,1.8-1.8,1.8h-13.33,0Z"/>
              </g>
              <g id="Vector_10" data-name="Vector 10">
                <path class="cls-5" d="m109.34,74.34v28.38c0,1-.8,1.8-1.81,1.8s-1.8-.8-1.8-1.8v-28.38h-5.76c-1,0-1.8-.8-1.8-1.8s.8-1.8,1.8-1.8h15.13c.95,0,1.81.8,1.81,1.8s-.85,1.8-1.81,1.8c0,0-5.76,0-5.76,0Z"/>
              </g>
              <g id="Vector_11" data-name="Vector 11">
                <path class="cls-5" d="m124.02,104.52c-1,0-1.8-.8-1.8-1.8v-30.19c0-1,.8-1.8,1.8-1.8h15.13c.95,0,1.81.8,1.81,1.8s-.85,1.8-1.81,1.8h-13.33v19.02h13.33c.95,0,1.81.85,1.81,1.85s-.85,1.8-1.81,1.8h-13.33v3.91h13.33c.95,0,1.81.8,1.81,1.8s-.85,1.8-1.81,1.8h-15.13Z"/>
              </g>
              <g id="Vector_12" data-name="Vector 12">
                <path class="cls-5" d="m164.51,101.42c.7.75.7,1.85,0,2.55-.35.35-.85.55-1.3.55s-.9-.2-1.25-.55l-7.37-7.31c-.85.2-1.8.3-2.75.3h-1.91v5.76c0,1-.8,1.8-1.8,1.8s-1.8-.8-1.8-1.8v-30.19c0-1,.8-1.8,1.8-1.8h3.71c3.51,0,6.82,1.35,9.32,3.75,2.51,2.45,3.91,5.76,3.91,9.26,0,4.95-2.75,9.26-6.76,11.51l6.22,6.16h-.02Zm-14.58-27.08v19.02h1.91c5.26,0,9.57-4.31,9.57-9.61s-4.16-9.41-9.57-9.41h-1.91Z"/>
              </g>
              <g id="Vector_13" data-name="Vector 13">
                <path class="cls-5" d="m174.58,71.31c.39.39.59.87.59,1.44s-.2,1.03-.59,1.42-.87.58-1.44.58-1.04-.2-1.42-.58-.59-.87-.59-1.42.2-1.05.59-1.44c.38-.39.85-.58,1.42-.58s1.05.2,1.44.58Zm.29,31.5c0,.47-.17.87-.51,1.2-.32.34-.73.51-1.22.51s-.87-.17-1.2-.51c-.34-.32-.51-.73-.51-1.2v-23.29c0-.49.17-.9.51-1.22.32-.34.73-.51,1.2-.51s.9.17,1.22.51c.34.32.51.73.51,1.22v23.29Z"/>
              </g>
              <g id="Vector_14" data-name="Vector 14">
                <path class="cls-5" d="m211.42,102.72v-24.22l-11.83,17.67c-.3.5-.85.8-1.45.8-.65,0-1.2-.3-1.5-.8l-11.83-17.67v24.22c0,1-.8,1.8-1.8,1.8s-1.81-.8-1.81-1.8v-30.19c0-.8.5-1.5,1.3-1.75.75-.2,1.55.1,2.01.75l13.63,20.37,13.58-20.37c.45-.65,1.25-.95,2.01-.75.8.25,1.3.95,1.3,1.75v30.19c0,1-.8,1.8-1.8,1.8s-1.8-.8-1.8-1.8h0Z"/>
              </g>
            </g>
          </g>
        </g>
      </g>
    </g>
  </g>
</svg>