<?xml version="1.0" encoding="UTF-8"?>
<svg id="Layer_1" data-name="Layer 1" xmlns="http://www.w3.org/2000/svg" width="2271.1" height="241.1" viewBox="0 0 2271.1 241.1">
  <defs>
    <style>
      .cls-1 {
        fill: #fff;
      }
    </style>
  </defs>
  <path class="cls-1" d="m135.98,154.79c0,23.12-16.46,44.06-57.18,44.06H2.55L19.94,52.71h57.39c40.31,0,58.23,12.92,58.23,36.77,0,16.46-15.21,28.64-30.52,32.19,18.23,4.27,30.94,13.75,30.94,33.12Zm-43.64-1.67c0-12.92-10.21-16.46-18.33-16.46h-21.56l-4.17,35.73h22.5c12.81-.1,21.56-3.65,21.56-19.27Zm-33.02-73.95l-3.75,31.98h18.12c11.67,0,18.12-6.46,18.12-18.12,0-9.37-7.29-13.75-18.12-13.75h-14.37v-.1h0Z"/>
  <path class="cls-1" d="m149.93,153.54l11.87-100.83h41.77l-11.25,94.16c-2.92,23.75,2.29,26.56,12.08,30.1l-3.54,24.89c-39.37-.1-55.31-11.56-50.93-48.33h0Z"/>
  <path class="cls-1" d="m215.14,151.87c0-37.19,23.54-69.27,68.02-69.27,30.31,0,51.14,14.79,51.14,49.68,0,37.19-23.54,69.47-68.23,69.47-30.1,0-50.93-14.79-50.93-49.89h0Zm76.97-24.48c0-16.04-3.75-23.33-11.25-23.33-13.33,0-23.54,23.54-23.54,52.81,0,16.04,3.75,23.33,11.25,23.33,13.33,0,23.54-23.54,23.54-52.81Z"/>
  <path class="cls-1" d="m338.67,229.27l8.33-23.33c8.33,4.79,19.79,8.75,33.64,8.75,18.33,0,29.89-7.08,33.23-34.06l1.46-11.87h-.62c-8.75,16.87-21.67,29.69-41.98,29.69-12.5,0-30.31-4.79-30.31-36.56,0-40.31,29.06-79.37,59.06-79.37,11.46,0,19.37,5.62,22.71,14.17l1.25-11.04h39.69l-11.04,93.33c-5.42,46.14-37.39,61.14-70.1,61.14-18.33.1-35.1-4.69-45.31-10.83v-.02Zm81.87-107.91c0-10.21-2.5-15.42-8.54-15.42-13.54,0-27.39,27.81-27.39,51.56,0,10.21,2.5,15.42,8.75,15.42,13.65,0,27.19-27.91,27.19-51.56h0Z"/>
  <path class="cls-1" d="m637.61,83.13h-39.69l-13.54,115.62h-42.6l13.54-115.62h-39.69l3.75-30.52h121.87l-3.65,30.52h.01Z"/>
  <path class="cls-1" d="m620.11,164.58c0-40.94,30.31-82.08,60.31-82.08,12.29,0,19.37,6.87,21.67,12.92l1.25-9.79h39.69l-13.33,113.12h-41.77l3.12-25.52h-.62c-9.17,16.87-20.83,28.44-39.27,28.44-19.79.1-31.04-12.4-31.04-37.08h0Zm78.33-42.18c0-11.04-2.71-16.46-8.96-16.46-13.12,0-27.19,28.85-27.19,53.85,0,11.04,2.71,16.46,8.96,16.46,13.12,0,27.19-28.75,27.19-53.85Z"/>
  <path class="cls-1" d="m742.19,175.83l22.5-13.33c7.71,10,17.08,14.37,24.58,14.37,5.21,0,8.75-2.08,8.75-6.25,0-5-6.67-9.17-14.79-13.96-12.71-7.92-29.06-17.92-29.06-37.39s17.29-36.98,46.77-36.98c16.67,0,33.85,5.83,44.89,20.62l-22.19,13.44c-6.25-7.08-13.33-9.17-20.42-9.17-6.04,0-10.42,2.08-10.42,6.25s5.62,7.5,12.92,11.87c12.92,8.12,30.94,19.17,30.94,41.35,0,17.5-12.92,34.89-44.27,34.89-25.94,0-41.77-12.08-50.21-25.73v.02Z"/>
  <path class="cls-1" d="m845.62,164.58c0-40.94,30.31-82.08,60.31-82.08,12.29,0,19.37,6.87,21.67,12.92l1.25-9.79h39.69l-13.33,113.12h-41.77l3.12-25.52h-.62c-9.17,16.87-20.83,28.44-39.27,28.44-19.79.1-31.04-12.4-31.04-37.08h0Zm78.22-42.18c0-11.04-2.71-16.46-8.96-16.46-13.12,0-27.19,28.85-27.19,53.85,0,11.04,2.71,16.46,8.96,16.46,13.23,0,27.19-28.75,27.19-53.85Z"/>
  <path class="cls-1" d="m987.9,85.73h41.77l-14.58,67.18h.83c7.92-27.39,21.25-70.31,48.85-70.31,2.92,0,5.42.21,6.87.62l-11.25,46.77c-1.87-.21-4.37-.42-6.67-.42-18.96,0-29.27,14.58-37.39,69.27h-41.77l13.33-113.12h.01Z"/>
  <path class="cls-1" d="m1110.71,198.85h-41.77l13.33-113.12h41.77l-13.33,113.12Z"/>
  <path class="cls-1" d="m1142.48,85.73h41.77l-11.25,60.52h.83c9.37-33.02,21.46-63.64,44.89-63.64,26.56,0,22.08,29.89,17.71,63.64h.83c13.12-45.93,28.85-63.64,47.6-63.64,24.89,0,29.27,21.46,25.94,48.85l-8.12,67.39h-41.77l7.71-63.43c1.25-10.62,1.67-19.58-4.17-19.58-9.37,0-19.17,25.52-26.56,67.6l-2.71,15.42h-38.64l7.71-63.23c1.87-16.04.62-19.79-3.75-19.79-11.04,0-21.25,31.77-29.69,83.12h-41.77l13.44-113.22h0Z"/>
  <path class="cls-1" d="m1522.35,198.85h-37.29l11.87-100.41-35.73,100.41h-34.06l-14.58-100.41-11.87,100.41h-37.39l17.29-146.14h54.68l13.96,102.29,34.27-102.29h56.14l-17.29,146.14Z"/>
  <path class="cls-1" d="m1542.45,164.58c0-40.94,30.31-82.08,60.31-82.08,12.29,0,19.37,6.87,21.67,12.92l1.25-9.79h39.69l-13.33,113.12h-41.77l3.12-25.52h-.62c-9.17,16.87-20.83,28.44-39.27,28.44-19.79.1-31.04-12.4-31.04-37.08h-.01Zm78.22-42.18c0-11.04-2.71-16.46-8.96-16.46-13.12,0-27.19,28.85-27.19,53.85,0,11.04,2.71,16.46,8.96,16.46,13.23,0,27.19-28.75,27.19-53.85Z"/>
  <path class="cls-1" d="m1688.8,52.71h41.77l-8.12,69.68,37.81-36.77h38.64l-47.39,46.77,38.64,66.35h-41.77l-24.58-41.56-6.25,5.83-4.17,35.73h-41.77s17.19-146.03,17.19-146.03Z"/>
  <path class="cls-1" d="m1839.1,198.85h-41.77l13.33-113.12h41.77l-13.33,113.12Zm-27.19-145.93c0-13.75,11.46-22.71,24.48-22.71,11.67,0,21.87,7.71,21.87,20.21,0,13.75-11.46,22.71-24.37,22.71-11.67,0-21.98-7.71-21.98-20.21Z"/>
  <path class="cls-1" d="m1871.91,85.73h41.77l-11.25,60.52h.62c15.21-53.85,34.48-63.64,49.89-63.64,22.5,0,31.14,16.67,28.02,43.23l-8.75,73.02h-41.77l7.92-65.1c1.04-9.37,1.04-17.92-6.25-17.92-14.58,0-25.1,40.73-31.77,83.12h-41.77l13.33-113.22h.01Z"/>
  <path class="cls-1" d="m2072.73,162.29l21.46,12.92c-10.62,17.71-29.27,26.56-51.14,26.56-35.94,0-50.73-20.83-50.73-47.18,0-43.85,29.48-71.97,66.98-71.97,21.87,0,42.6,9.17,42.6,30.1,0,32.81-45.73,38.44-69.27,40.52v2.08c0,13.33,5.21,21.67,16.25,21.67,10.42-.1,18.44-6.77,23.85-14.69h0Zm-38.64-24.79c20.83-1.87,30.73-13.12,30.73-24.69,0-5.62-2.29-8.75-7.5-8.75-10.31,0-19.69,13.33-23.23,33.44h0Z"/>
  <path class="cls-1" d="m2102.31,175.83l22.5-13.33c7.71,10,17.08,14.37,24.69,14.37,5.21,0,8.75-2.08,8.75-6.25,0-5-6.67-9.17-14.79-13.96-12.71-7.92-29.06-17.92-29.06-37.39s17.29-36.98,46.77-36.98c16.67,0,33.85,5.83,44.89,20.62l-22.29,13.33c-6.25-7.08-13.33-9.17-20.42-9.17-6.04,0-10.42,2.08-10.42,6.25s5.62,7.5,12.92,11.87c12.92,8.12,30.94,19.17,30.94,41.35,0,17.5-12.92,34.89-44.27,34.89-25.94.1-41.77-11.98-50.21-25.62v.02Z"/>
  <path class="cls-1" d="m2249.28,198.85h-41.77l13.33-113.12h41.77l-13.33,113.12Zm-27.08-145.93c0-13.75,11.46-22.71,24.48-22.71,11.67,0,21.87,7.71,21.87,20.21,0,13.75-11.46,22.71-24.37,22.71-11.77,0-21.98-7.71-21.98-20.21Z"/>
</svg>