<?xml version="1.0" encoding="UTF-8"?>
<svg id="Layer_1" data-name="Layer 1" xmlns="http://www.w3.org/2000/svg" width="2271.1" height="241.1" viewBox="0 0 2271.1 241.1">
  <defs>
    <style>
      .cls-1 {
        fill: #fff;
      }
    </style>
  </defs>
  <path class="cls-1" d="m90.55,176.13h-46.59l-8.69,21.43H0L59.12,55.77h51.54l23.65,141.79h-40.93s-2.83-21.43-2.83-21.43Zm-35.47-29.41h32.24l-7.28-60.33s-24.96,60.33-24.96,60.33Z"/>
  <path class="cls-1" d="m140.98,212.72c8.49,0,32.44,0,39.72-15.16h-24.36l-9.7-109.76h39.72l3.44,87.12,30.42-87.12h35.88l-40.53,102.68c-15.77,39.92-39.52,47.2-70.85,47.2l-3.74-24.96Z"/>
  <path class="cls-1" d="m293.39,197.56h-40.53l12.94-109.76h40.53l-12.94,109.76Z"/>
  <path class="cls-1" d="m324.11,87.81h40.53l-10.91,58.72h.61c14.76-52.25,33.45-61.75,48.41-61.75,21.83,0,30.22,16.17,27.19,41.94l-8.49,70.85h-40.53l7.68-63.16c1.01-9.1,1.01-17.38-6.06-17.38-14.15,0-24.36,39.52-30.82,80.65h-40.53l12.94-109.86h-.02Z"/>
  <path class="cls-1" d="m482.07,135.81c0-46.79,30.02-83.88,77.82-83.88,37.09,0,62.96,22.23,62.96,65.99,0,46.59-29.81,83.68-77.62,83.68-36.79,0-63.16-21.83-63.16-65.79h0Zm37.29-111.78c0-12.94,9.9-20.62,21.22-20.62,10.31,0,19.2,6.47,19.2,18.6,0,12.94-9.9,20.62-21.02,20.62-10.31,0-19.4-6.47-19.4-18.6h0Zm60.64,91.26c0-25.97-8.09-36.69-21.22-36.69-21.22,0-33.65,27.99-33.65,59.53,0,26.38,8.69,36.69,21.43,36.69,20.41.1,33.45-26.68,33.45-59.53h-.01Zm-11.42-91.26c0-12.94,9.9-20.62,21.02-20.62,10.31,0,19.4,6.47,19.4,18.6,0,12.94-9.9,20.62-21.22,20.62-10.31,0-19.2-6.47-19.2-18.6h0Z"/>
  <path class="cls-1" d="m643.37,87.81h40.53l-10.91,58.72h.61c14.76-52.25,33.45-61.75,48.41-61.75,21.83,0,30.22,16.17,27.19,41.94l-8.49,70.85h-40.53l7.68-63.16c1.01-9.1,1.01-17.38-6.06-17.38-14.15,0-24.36,39.52-30.82,80.65h-40.53l12.94-109.86h-.02Z"/>
  <path class="cls-1" d="m838.22,162.09l20.82,12.53c-10.31,17.18-28.4,25.77-49.62,25.77-34.87,0-49.22-20.21-49.22-45.78,0-42.55,28.6-69.83,64.98-69.83,21.22,0,41.34,8.89,41.34,29.21,0,31.84-44.37,37.29-67.21,39.31v2.02c0,12.94,5.05,21.02,15.77,21.02s17.89-6.47,23.14-14.25h0Zm-37.49-24.05c20.21-1.82,29.81-12.73,29.81-23.95,0-5.46-2.22-8.49-7.28-8.49-10.01,0-19.1,13.04-22.54,32.44h.01Z"/>
  <path class="cls-1" d="m884.61,87.81h40.53l-14.15,65.19h.81c7.68-26.58,20.62-68.22,47.4-68.22,2.83,0,5.26.2,6.67.61l-10.91,45.38c-1.82-.2-4.24-.4-6.47-.4-18.39,0-28.4,14.15-36.28,67.21h-40.53l12.94-109.76h-.01Z"/>
  <path class="cls-1" d="m1004.77,197.56h-40.53l12.94-109.76h40.53l-12.94,109.76h0Zm-26.38-141.59c0-13.34,11.12-22.03,23.75-22.03,11.32,0,21.22,7.48,21.22,19.61,0,13.34-11.12,22.03-23.65,22.03-11.42.1-21.32-7.48-21.32-19.61h0Z"/>
  <path class="cls-1" d="m1026,153.6l11.52-97.83h40.53l-10.91,91.36c-2.83,23.04,2.22,25.77,11.72,29.21l-3.44,24.15c-38.3-.1-53.66-11.22-49.42-46.89h0Z"/>
  <path class="cls-1" d="m1166.98,162.09l20.82,12.53c-10.31,17.18-28.4,25.77-49.62,25.77-34.87,0-49.22-20.21-49.22-45.78,0-42.55,28.6-69.83,64.98-69.83,21.22,0,41.34,8.89,41.34,29.21,0,31.84-44.37,37.29-67.21,39.31v2.02c0,12.94,5.05,21.02,15.77,21.02s17.89-6.47,23.14-14.25h0Zm-37.49-24.05c20.21-1.82,29.81-12.73,29.81-23.95,0-5.46-2.22-8.49-7.28-8.49-10.01,0-19.1,13.04-22.54,32.44h.01Z"/>
  <path class="cls-1" d="m1213.37,87.81h40.53l-14.15,65.19h.81c7.68-26.58,20.62-68.22,47.4-68.22,2.83,0,5.26.2,6.67.61l-10.91,45.38c-1.82-.2-4.24-.4-6.47-.4-18.39,0-28.4,14.15-36.28,67.21h-40.53l12.94-109.76h-.01Z"/>
  <path class="cls-1" d="m1333.43,197.56h-40.53l12.94-109.76h40.53l-12.94,109.76Zm-26.28-141.59c0-13.34,11.12-22.03,23.75-22.03,11.32,0,21.22,7.48,21.22,19.61,0,13.34-11.12,22.03-23.65,22.03-11.42.1-21.32-7.48-21.32-19.61Z"/>
  <path class="cls-1" d="m1547.18,197.56h-36.28l11.52-97.43-34.66,97.43h-32.95l-14.15-97.43-11.52,97.43h-36.28l16.78-141.79h53.06l13.54,99.24,33.25-99.24h54.47l-16.78,141.79Z"/>
  <path class="cls-1" d="m1566.59,164.31c0-39.72,29.41-79.64,58.52-79.64,11.93,0,18.8,6.67,21.02,12.53l1.21-9.5h38.51l-12.94,109.76h-40.53l3.03-24.76h-.61c-8.89,16.37-20.21,27.59-38.1,27.59-19.1.1-30.12-12.03-30.12-35.98h0Zm76-40.83c0-10.71-2.63-15.97-8.69-15.97-12.73,0-26.38,27.99-26.38,52.25,0,10.71,2.63,15.97,8.69,15.97,12.84,0,26.38-27.99,26.38-52.25Z"/>
  <path class="cls-1" d="m1708.58,55.77h40.53l-7.88,67.61,36.69-35.68h37.49l-45.98,45.38,37.49,64.38h-40.53l-23.85-40.32-6.06,5.66-4.04,34.66h-40.53l16.68-141.69h0Z"/>
  <path class="cls-1" d="m1854.42,197.56h-40.53l12.94-109.76h40.53l-12.94,109.76Zm-26.28-141.59c0-13.34,11.12-22.03,23.75-22.03,11.32,0,21.22,7.48,21.22,19.61,0,13.34-11.12,22.03-23.65,22.03-11.42.1-21.32-7.48-21.32-19.61Z"/>
  <path class="cls-1" d="m1886.25,87.81h40.53l-10.91,58.72h.61c14.76-52.25,33.45-61.75,48.41-61.75,21.83,0,30.22,16.17,27.19,41.94l-8.49,70.85h-40.63l7.68-63.16c1.01-9.1,1.01-17.38-6.06-17.38-14.15,0-24.36,39.52-30.82,80.65h-40.53l13.04-109.86h-.02Z"/>
  <path class="cls-1" d="m2081.1,162.09l20.82,12.53c-10.31,17.18-28.4,25.77-49.62,25.77-34.87,0-49.22-20.21-49.22-45.78,0-42.55,28.6-69.83,64.98-69.83,21.22,0,41.33,8.89,41.33,29.21,0,31.84-44.37,37.29-67.21,39.31v2.02c0,12.94,5.05,21.02,15.77,21.02s17.89-6.47,23.14-14.25h.01Zm-37.49-24.05c20.21-1.82,29.81-12.73,29.81-23.95,0-5.46-2.22-8.49-7.28-8.49-9.9,0-19,13.04-22.54,32.44h.01Z"/>
  <path class="cls-1" d="m2109.9,175.33l21.83-12.94c7.48,9.7,16.57,13.95,23.95,13.95,5.05,0,8.49-2.02,8.49-6.06,0-4.85-6.47-8.89-14.35-13.54-12.33-7.68-28.2-17.38-28.2-36.28s16.78-35.88,45.38-35.88c16.17,0,32.85,5.66,43.56,20.01l-21.63,12.94c-6.06-6.87-12.94-8.89-19.81-8.89-5.86,0-10.11,2.02-10.11,6.06s5.46,7.28,12.53,11.52c12.53,7.88,30.02,18.6,30.02,40.12,0,16.98-12.53,33.86-42.95,33.86-25.27,0-40.63-11.72-48.71-24.86h0Z"/>
  <path class="cls-1" d="m2252.5,197.56h-40.53l12.94-109.76h40.53l-12.94,109.76Zm-26.38-141.59c0-13.34,11.12-22.03,23.75-22.03,11.32,0,21.22,7.48,21.22,19.61,0,13.34-11.12,22.03-23.65,22.03-11.32.1-21.32-7.48-21.32-19.61Z"/>
</svg>