<?xml version="1.0" encoding="UTF-8"?>
<svg id="Layer_1" data-name="Layer 1" xmlns="http://www.w3.org/2000/svg" width="435" height="507.2" xmlns:xlink="http://www.w3.org/1999/xlink" viewBox="0 0 435 507.2">
  <defs>
    <style>
      .cls-1, .cls-2 {
        fill: none;
      }

      .cls-3 {
        fill: #fff;
      }

      .cls-2 {
        clip-path: url(#clippath);
      }
    </style>
    <clipPath id="clippath">
      <rect class="cls-1" y="0" width="435" height="507.2"/>
    </clipPath>
  </defs>
  <g class="cls-2">
    <g id="lonca-b">
      <g>
        <path class="cls-3" d="m186.83,453.59v.23h-.3c-.23.03-.22.25-.22.25v1.32c0,1.85-2.03,1.74-2.03,1.74v.99c.05.43.39.46.39.46h.34v.2h-2.23v-.2h.34s.34-.03.39-.46v-.99s-2.02.1-2.02-1.74v-1.32s0-.23-.23-.25h-.3v-.23h.53s.78-.03.78,1.09v1.19s0,1.04,1.24,1.04v-2.68s0-.46-.66-.4v-.23h2.08v.23c-.66-.05-.66.4-.66.4v2.68c1.24,0,1.24-1.04,1.24-1.04v-1.19c0-1.11.78-1.09.78-1.09h.54Z"/>
        <path class="cls-3" d="m193.46,460.55s-7.24,3.95-7.36,12.31h-1.51v-12.56c2.14-.34,3.77-2.19,3.77-4.43,0-2.47-2-4.48-4.48-4.48s-4.48,2-4.48,4.48c0,2.24,1.65,4.11,3.8,4.43v12.55h-1.51c-.12-8.36-7.36-12.31-7.36-12.31l3.5-17.4h12.12l3.5,17.4h0Z"/>
      </g>
      <g>
        <g>
          <path class="cls-3" d="m183.98,482.42c.21-.17.43-.48.43-1.05v-.68s-.12-.99-.89-1.19h-1.47v6.49h.76v-2.88h.61s.28.06.34.61c0,.07,0,.14,0,.23v2.02h.76v-2.51s-.08-.7-.55-1.04h0Zm-.71-.28h-.46v-1.79h.46s.37.12.37.87-.37.92-.37.92Z"/>
          <path class="cls-3" d="m193.29,482.42c.21-.17.43-.48.43-1.05v-.68s-.12-.99-.89-1.19h-1.47v6.49h.76v-2.88h.61s.28.06.34.61c0,.07,0,.14,0,.23v2.02h.76v-2.51s-.08-.7-.55-1.04h0Zm-.71-.28h-.46v-1.79h.46s.37.12.37.87-.37.92-.37.92Z"/>
          <polygon class="cls-3" points="187.28 485.1 187.28 486.01 185.21 486.01 185.21 479.51 185.97 479.51 185.97 485.1 187.28 485.1"/>
          <polygon class="cls-3" points="177.94 480.49 176.51 485.01 177.97 485.01 177.97 485.99 175.64 485.99 175.64 485.01 175.64 485.01 177.12 480.49 175.64 480.49 175.64 479.51 177.97 479.51 177.97 480.37 177.94 480.49"/>
          <polygon class="cls-3" points="171.56 479.51 170.54 482.75 170.54 486.01 169.78 486.01 169.78 482.61 168.8 479.51 169.62 479.51 170.18 481.29 170.74 479.51 171.56 479.51"/>
          <path class="cls-3" d="m174.01,479.51h-.82l-.94,6.5h.77l.13-.93h.9l.13.93h.77l-.94-6.5Zm-.72,4.59l.31-2.11.31,2.11h-.62Z"/>
          <path class="cls-3" d="m180.43,479.51h-.82l-.94,6.5h.77l.13-.93h.9l.13.93h.77l-.94-6.5Zm-.72,4.59l.31-2.11.31,2.11h-.62Z"/>
          <path class="cls-3" d="m189.73,479.51h-.82l-.94,6.5h.77l.13-.93h.9l.13.93h.77l-.94-6.5Zm-.72,4.59l.31-2.11.31,2.11h-.62Z"/>
        </g>
        <path class="cls-3" d="m201.45,479.61c-.47-.24-.94,0-.94,0,0,0-.76.29-.76,1.42v3.32c0,1.22.76,1.54.76,1.54,0,0,.46.26.94,0,.74-.4.76-1.43.76-1.53h0v-3.32h0c0-.1-.02-1.05-.76-1.42h0Zm0,4.95c0,.32-.24.52-.24.52,0,0-.19.17-.44,0s-.26-.52-.26-.52v-3.73s0-.32.26-.48c.25-.16.44,0,.44,0,0,0,.24.18.24.48v3.73Z"/>
        <path class="cls-3" d="m215.07,484.07c.03.1.04.25.04.44,0,.21-.04.45-.04.45,0,0-.2,1.06-.97,1.06h-.6s-.7-.14-.85-1.05c-.04-.26,0-1.05,0-1.05h.79s-.21,1.19.45,1.19c.55,0,.54-.74.46-1.01-.1-.33-.28-.58-.92-1.26s-.74-1.03-.81-1.47c-.02-.11-.03-.33-.03-.43s.03-.39.03-.39c.12-.75.53-.95.81-1,.15-.03.59-.01.59-.01.72,0,.85.87.87.98.02.14.02.7.02.7h-.66s.03-.97-.48-.97c-.61,0-.58.88-.49,1.19.11.39.52.84.88,1.21.61.64.8,1,.92,1.45v-.03Z"/>
        <path class="cls-3" d="m208.5,481.08h0v.39h-.76v-.59c0-.31-.24-.5-.24-.5,0,0-.19-.16-.44,0s-.26.5-.26.5v3.74c.02.12.08.32.25.43.25.18.44,0,.44,0,0,0,.24-.2.24-.54v-.64h.76v.42s.02,1.14-.74,1.59h0c-.43.24-.85.05-.92,0h0s-.65-.28-.74-1.32v-3.48c0-1.17.76-1.47.76-1.47,0,0,.46-.25.94,0,.74.38.76,1.37.76,1.46h-.03Z"/>
        <polygon class="cls-3" points="199.07 485.1 199.07 486.01 197 486.01 197 479.51 197.76 479.51 197.76 485.1 199.07 485.1"/>
        <polygon class="cls-3" points="205.36 479.51 205.36 486.01 204.66 486.01 204.61 485.86 203.65 482.42 203.65 486.01 202.89 486.01 202.89 479.51 203.65 479.51 203.66 479.53 204.61 482.95 204.61 479.51 205.36 479.51"/>
        <rect class="cls-3" x="215.83" y="479.51" width=".76" height="6.47"/>
        <path class="cls-3" d="m210.95,479.51h-.82l-.94,6.5h.77l.13-.93h.9l.13.93h.77l-.94-6.5Zm-.72,4.59l.31-2.11.31,2.11h-.62Z"/>
        <g>
          <polygon class="cls-3" points="153.7 479.47 153.7 480.22 152.82 480.22 152.82 485.97 152.06 485.97 152.06 480.22 151.18 480.22 151.18 479.47 153.7 479.47"/>
          <path class="cls-3" d="m159.14,479.58c-.47-.24-.94,0-.94,0,0,0-.76.29-.76,1.42v3.32c0,1.22.76,1.54.76,1.54,0,0,.46.26.94,0,.74-.4.76-1.43.76-1.53h0v-3.32h0c0-.1-.02-1.05-.76-1.42h0Zm0,4.95c0,.32-.24.52-.24.52,0,0-.19.17-.44,0s-.26-.52-.26-.52v-3.73s0-.32.26-.48c.25-.16.44,0,.44,0,0,0,.24.18.24.48v3.73Z"/>
          <path class="cls-3" d="m156.09,479.47h-1.7v6.5h.76v-2.9h.94s.67-.2.67-1.42v-.95s0-1-.67-1.23h0Zm-.33,2.85h-.61v-2.09h.61s.33.21.33,1.08-.33,1.01-.33,1.01Z"/>
          <path class="cls-3" d="m163.03,481.04h0v.39h-.76v-.59c0-.31-.24-.5-.24-.5,0,0-.19-.16-.44,0s-.26.5-.26.5v3.74c.02.12.08.32.25.43.25.18.44,0,.44,0,0,0,.24-.2.24-.54v-.64h.76v.42s.02,1.14-.74,1.59h0s-.08.04-.12.06l-.47,1.07-.66-.5.29-.65c-.13-.07-.63-.4-.72-1.31v-3.48c0-1.16.76-1.47.76-1.47,0,0,.46-.25.94,0,.74.38.76,1.37.76,1.46l-.02.02Z"/>
          <path class="cls-3" d="m166.17,481.07h0v.4h-.76v-.6c0-.31-.24-.51-.24-.51,0,0-.19-.17-.44,0s-.26.51-.26.51v3.88c.02.11.08.28.25.38.08.05.15.07.21.07h.06c.11-.01.18-.07.18-.07,0,0,.24-.18.24-.48v-.57h0v-.44h-.37v-.87h1.12v1.68h0c0,.09-.02,1.03-.75,1.41h0c-.43.21-.85.04-.93,0h0s-.65-.25-.75-1.17v-3.62c0-1.18.76-1.49.76-1.49,0,0,.46-.25.94,0,.74.39.76,1.39.76,1.48h-.02Z"/>
          <rect class="cls-3" x="157.92" y="478.53" width=".58" height=".75"/>
          <rect class="cls-3" x="158.85" y="478.53" width=".58" height=".75"/>
        </g>
      </g>
    </g>
  </g>
</svg>