<?xml version="1.0" encoding="UTF-8"?>
<svg id="Layer_1" data-name="Layer 1" xmlns="http://www.w3.org/2000/svg" width="435" height="507.2" xmlns:xlink="http://www.w3.org/1999/xlink" viewBox="0 0 435 507.2">
  <defs>
    <style>
      .cls-1, .cls-2, .cls-3 {
        fill: none;
      }

      .cls-2 {
        clip-path: url(#clippath-1);
      }

      .cls-4 {
        fill: #fff;
      }

      .cls-5 {
        fill: #a21d50;
      }

      .cls-3 {
        clip-path: url(#clippath);
      }
    </style>
    <clipPath id="clippath">
      <rect class="cls-1" x=".25" y="0" width="435" height="507.2"/>
    </clipPath>
    <clipPath id="clippath-1">
      <rect class="cls-1" x="19.22" y="20" width="396.55" height="92.43"/>
    </clipPath>
  </defs>
  <g class="cls-3">
    <g id="w-title-prev">
      <g class="cls-2">
        <g id="Asset_17_1" data-name="Asset 17 1">
          <g id="_2" data-name=" 2">
            <g id="Group">
              <path id="Vector" class="cls-5" d="m403.76,27.25H127.35c-6.64,0-12.02,5.37-12.02,12v9.7c0,6.63,5.38,12,12.02,12h276.41c6.64,0,12.02-5.37,12.02-12v-9.7c0-6.63-5.38-12-12.02-12Z"/>
              <path id="Vector_2" data-name="Vector 2" class="cls-5" d="m403.76,70.71h-166.38c-6.64,0-12.02,5.37-12.02,12v9.7c0,6.63,5.38,12,12.02,12h166.38c6.64,0,12.02-5.37,12.02-12v-9.7c0-6.63-5.38-12-12.02-12Z"/>
              <g id="Vector_3" data-name="Vector 3">
                <path class="cls-4" d="m41.12,59.15v-5.75h-11.46v5.75c0,1-.8,1.8-1.8,1.8s-1.8-.8-1.8-1.8v-22.6c0-5.15,4.21-9.35,9.36-9.35s9.36,4.2,9.36,9.35v22.6c0,1-.85,1.8-1.8,1.8-1,0-1.85-.8-1.85-1.8h-.01Zm0-22.6c0-3.2-2.55-5.75-5.71-5.75s-5.76,2.55-5.76,5.75v13.25h11.46v-13.25h0Z"/>
              </g>
              <g id="Vector_4" data-name="Vector 4">
                <path class="cls-4" d="m68.25,60.95c-.55,0-1.15-.3-1.5-.8l-8.66-13.4-3.1,4.45v7.95c0,1-.8,1.8-1.8,1.8s-1.8-.8-1.8-1.8v-30c0-.95.8-1.8,1.8-1.8s1.8.85,1.8,1.8v15.75l11.81-16.9c.55-.8,1.7-1,2.5-.45s1,1.7.45,2.5l-9.46,13.55,9.46,14.55c.55.85.35,1.95-.5,2.5-.3.2-.65.3-1,.3h0Z"/>
              </g>
              <g id="Vector_5" data-name="Vector 5">
                <path class="cls-4" d="m75.86,59.15v-30.15c0-1,.8-1.8,1.8-1.8s1.8.8,1.8,1.8v30.15c0,1-.8,1.8-1.8,1.8s-1.8-.8-1.8-1.8h0Z"/>
              </g>
              <g id="Vector_6" data-name="Vector 6">
                <path class="cls-4" d="m88.08,60.95c-1,0-1.8-.8-1.8-1.75v-30.15c0-1,.8-1.8,1.8-1.8s1.8.8,1.8,1.8v28.35h13.32c.95,0,1.8.8,1.8,1.8s-.85,1.75-1.8,1.75h-15.12Z"/>
              </g>
              <g id="Vector_7" data-name="Vector 7">
                <path class="cls-4" d="m26.05,102.63v-30.15c0-1,.8-1.8,1.8-1.8,9.31,0,16.92,7.55,16.92,16.85s-7.61,16.9-16.92,16.9c-1,0-1.8-.8-1.8-1.8h0Zm3.61-1.95c6.46-.85,11.46-6.45,11.46-13.15s-5.01-12.25-11.46-13.15v26.3h0Z"/>
              </g>
              <g id="Vector_8" data-name="Vector 8">
                <path class="cls-4" d="m52.63,104.44c-1,0-1.8-.8-1.8-1.8v-30.15c0-1,.8-1.8,1.8-1.8h15.12c.95,0,1.8.8,1.8,1.8s-.85,1.8-1.8,1.8h-13.32v19h13.32c.95,0,1.8.85,1.8,1.85s-.85,1.8-1.8,1.8h-13.32v3.9h13.32c.95,0,1.8.8,1.8,1.8s-.85,1.8-1.8,1.8c0,0-15.12,0-15.12,0Z"/>
              </g>
              <g id="Vector_9" data-name="Vector 9">
                <path class="cls-4" d="m78.51,96.89v5.75c0,1-.8,1.8-1.8,1.8s-1.8-.8-1.8-1.8v-30.15c0-1,.8-1.8,1.8-1.8h15.12c.95,0,1.8.8,1.8,1.8s-.85,1.8-1.8,1.8h-13.32v19h13.32c.95,0,1.8.8,1.8,1.8s-.85,1.8-1.8,1.8c0,0-13.32,0-13.32,0Z"/>
              </g>
              <g id="Vector_10" data-name="Vector 10">
                <path class="cls-4" d="m109.45,74.28v28.35c0,1-.8,1.8-1.8,1.8s-1.8-.8-1.8-1.8v-28.35h-5.76c-1,0-1.8-.8-1.8-1.8s.8-1.8,1.8-1.8h15.12c.95,0,1.8.8,1.8,1.8s-.85,1.8-1.8,1.8c0,0-5.76,0-5.76,0Z"/>
              </g>
              <g id="Vector_11" data-name="Vector 11">
                <path class="cls-4" d="m124.12,104.44c-1,0-1.8-.8-1.8-1.8v-30.15c0-1,.8-1.8,1.8-1.8h15.12c.95,0,1.8.8,1.8,1.8s-.85,1.8-1.8,1.8h-13.32v19h13.32c.95,0,1.8.85,1.8,1.85s-.85,1.8-1.8,1.8h-13.32v3.9h13.32c.95,0,1.8.8,1.8,1.8s-.85,1.8-1.8,1.8c0,0-15.12,0-15.12,0Z"/>
              </g>
              <g id="Vector_12" data-name="Vector 12">
                <path class="cls-4" d="m164.56,101.33c.7.75.7,1.85,0,2.55-.35.35-.85.55-1.3.55s-.9-.2-1.25-.55l-7.36-7.3c-.85.2-1.8.3-2.75.3h-1.9v5.75c0,1-.8,1.8-1.8,1.8s-1.8-.8-1.8-1.8v-30.15c0-1,.8-1.8,1.8-1.8h3.71c3.5,0,6.81,1.35,9.31,3.75,2.5,2.45,3.91,5.75,3.91,9.25,0,4.95-2.75,9.25-6.76,11.5l6.21,6.15h-.02Zm-14.57-27.05v19h1.9c5.26,0,9.56-4.3,9.56-9.6s-4.15-9.4-9.56-9.4h-1.9Z"/>
              </g>
              <g id="Vector_13" data-name="Vector 13">
                <path class="cls-4" d="m174.63,71.26c.39.39.58.87.58,1.44s-.2,1.02-.58,1.42c-.39.39-.87.58-1.44.58s-1.04-.2-1.42-.58-.58-.86-.58-1.42.2-1.05.58-1.44.85-.58,1.42-.58,1.05.2,1.44.58Zm.29,31.47c0,.47-.17.87-.51,1.2-.32.34-.73.51-1.22.51s-.87-.17-1.2-.51c-.34-.32-.51-.72-.51-1.2v-23.26c0-.49.17-.9.51-1.22.32-.34.73-.51,1.2-.51s.9.17,1.22.51c.34.32.51.73.51,1.22v23.26Z"/>
              </g>
              <g id="Vector_14" data-name="Vector 14">
                <path class="cls-4" d="m211.42,102.63v-24.2l-11.81,17.65c-.3.5-.85.8-1.45.8-.65,0-1.2-.3-1.5-.8l-11.81-17.65v24.2c0,1-.8,1.8-1.8,1.8s-1.8-.8-1.8-1.8v-30.15c0-.8.5-1.5,1.3-1.75.75-.2,1.55.1,2,.75l13.62,20.35,13.57-20.35c.45-.65,1.25-.95,2-.75.8.25,1.3.95,1.3,1.75v30.15c0,1-.8,1.8-1.8,1.8s-1.8-.8-1.8-1.8h-.02Z"/>
              </g>
            </g>
          </g>
        </g>
      </g>
    </g>
  </g>
</svg>