<?xml version="1.0" encoding="UTF-8"?>
<svg id="Layer_1" data-name="Layer 1" xmlns="http://www.w3.org/2000/svg" width="435" height="507.2" xmlns:xlink="http://www.w3.org/1999/xlink" viewBox="0 0 435 507.2">
  <defs>
    <style>
      .cls-1, .cls-2 {
        fill: none;
      }

      .cls-3 {
        fill: #fff;
      }

      .cls-4 {
        fill: #a01d50;
      }

      .cls-2 {
        clip-path: url(#clippath);
      }
    </style>
    <clipPath id="clippath">
      <rect class="cls-1" x=".12" y="0" width="435" height="507.2"/>
    </clipPath>
  </defs>
  <g class="cls-2">
    <g id="tpöçg-b">
      <g>
        <path class="cls-3" d="m243.39,482.65v1.35h-2.07s-2.54-.02-2.75-2.63v-5h-2.7v-1.33h7.2v1.33h-3.07v4.44c0,1.94,1.86,1.83,1.86,1.83h1.53Z"/>
        <path class="cls-3" d="m247.87,475.04h-3.98v11.94h1.41v-3h2.57c2.35,0,4.26-2,4.26-4.47s-1.91-4.47-4.26-4.47h0Zm0,7.6h-2.57v-6.14h2.57c1.51.13,2.7,1.45,2.7,3.07s-1.19,2.94-2.7,3.07Z"/>
        <path class="cls-3" d="m276.53,475.04c-2.35,0-4.26,2-4.26,4.47s1.91,4.47,4.26,4.47h2.56c-.1,1.76-1.84,1.66-1.84,1.66h-1.52v1.34h2.05s.65,0,1.32-.35c.64-.33,1.3-.98,1.41-2.25v-9.33h-3.98Zm2.57,7.6h-2.57c-1.51-.13-2.7-1.45-2.7-3.07s1.19-2.94,2.7-3.07h2.57v6.14Z"/>
        <path class="cls-3" d="m257.72,475.04c-2.59,0-4.69,2-4.69,4.47s2.1,4.47,4.69,4.47,4.69-2,4.69-4.47-2.1-4.47-4.69-4.47Zm0,7.5c-1.75,0-3.17-1.36-3.17-3.03s1.42-3.03,3.17-3.03,3.17,1.36,3.17,3.03-1.42,3.03-3.17,3.03Z"/>
        <path class="cls-3" d="m268.1,482.54c-1.67,0-3.03-1.36-3.03-3.03s1.36-3.03,3.03-3.03c1.01,0,1.9.49,2.45,1.24l1.19-.82c-.81-1.13-2.14-1.86-3.63-1.86-2.47,0-4.47,2-4.47,4.47s2,4.47,4.47,4.47c1.47,0,2.77-.71,3.59-1.8l-1.18-.83c-.55.72-1.43,1.19-2.41,1.19h-.01Z"/>
        <path class="cls-3" d="m255.63,472.77c.41,0,.74.35.74.78s-.33.78-.74.78-.74-.35-.74-.78.33-.78.74-.78Z"/>
        <ellipse class="cls-3" cx="259.54" cy="473.55" rx=".74" ry=".78"/>
        <ellipse class="cls-3" cx="271.35" cy="485.15" rx=".74" ry=".78"/>
        <g>
          <path class="cls-3" d="m246.9,485h-.31v.87h-.13v-.87h-.31v-.12h.74v.12h0Z"/>
          <path class="cls-3" d="m247.45,485.78c-.06.07-.13.11-.2.11-.15,0-.23-.09-.23-.26v-.47h.12v.46c0,.06,0,.1.03.13s.05.04.1.04c.07,0,.13-.04.18-.11v-.51h.12v.71h-.12v-.09h0Zm-.21-.75h-.12v-.14h.12v.14Zm.24,0h-.12v-.14h.12v.14Z"/>
          <path class="cls-3" d="m248.11,485.27h-.07c-.06,0-.11.03-.16.1v.5h-.12v-.71h.12v.1c.05-.08.11-.12.18-.12h.06v.13h0Z"/>
          <path class="cls-3" d="m248.76,485.87h-.14l-.22-.36-.08.08v.28h-.12v-.99h.12v.56l.26-.29h.15l-.26.27.28.45h.01Z"/>
          <path class="cls-3" d="m249.22,484.89h.35c.08,0,.14,0,.19.02s.09.05.12.1c.03.05.05.11.05.17,0,.1-.03.18-.09.23-.06.05-.15.08-.26.08h-.24v.39h-.12v-.99h0Zm.12.48h.24c.08,0,.14-.02.17-.05s.05-.08.05-.14c0-.04,0-.07-.03-.11-.02-.03-.04-.05-.07-.06-.03,0-.07-.01-.13-.01h-.23v.36h0Z"/>
          <path class="cls-3" d="m250.33,485.89c-.19,0-.28-.08-.29-.23h.12c0,.09.06.13.17.13.05,0,.09-.01.11-.03s.04-.05.04-.08,0-.05-.04-.07c-.03-.01-.08-.03-.16-.05s-.14-.04-.18-.07-.06-.07-.06-.14c0-.06.02-.11.07-.15s.11-.06.18-.06c.18,0,.27.07.27.2h-.12c0-.07-.05-.1-.14-.1-.04,0-.07,0-.1.02s-.04.04-.04.07,0,.05.03.06.07.03.15.05c.08.02.14.05.18.07.04.03.06.08.06.14s-.02.12-.07.16-.12.06-.2.06l.02.02Z"/>
          <path class="cls-3" d="m250.87,485.02h-.12v-.14h.12v.14Zm0,.85h-.12v-.71h.12v.71Z"/>
          <path class="cls-3" d="m251.61,485.87h-.14l-.22-.36-.08.08v.28h-.12v-.99h.12v.56l.26-.29h.15l-.26.27.28.45h.01Z"/>
          <path class="cls-3" d="m251.98,485.14c.1,0,.17.03.23.1s.09.16.09.28-.03.21-.09.28-.14.1-.23.1-.17-.03-.23-.1-.09-.16-.09-.28.03-.21.09-.28.14-.1.23-.1Zm0,.65c.06,0,.1-.02.14-.07.04-.05.05-.11.05-.2s-.02-.16-.05-.21c-.04-.05-.08-.07-.14-.07s-.1.02-.14.07c-.04.05-.05.11-.05.21s.02.16.05.2c.04.05.08.07.14.07Z"/>
          <path class="cls-3" d="m252.56,485.87h-.12v-.99h.12v.99Z"/>
          <path class="cls-3" d="m253.02,485.14c.1,0,.17.03.23.1s.09.16.09.28-.03.21-.09.28-.14.1-.23.1-.17-.03-.23-.1-.09-.16-.09-.28.03-.21.09-.28.14-.1.23-.1Zm0,.65c.06,0,.1-.02.14-.07.04-.05.05-.11.05-.2s-.02-.16-.05-.21c-.04-.05-.08-.07-.14-.07s-.1.02-.14.07c-.04.05-.05.11-.05.21s.02.16.05.2c.04.05.08.07.14.07Z"/>
          <path class="cls-3" d="m253.59,485.91c0,.1-.02.17-.05.2s-.07.05-.13.05h-.08v-.11h.07s.04,0,.05-.03c0-.02,0-.06,0-.12v-.75h.12v.75h.01Zm0-.89h-.12v-.14h.12v.14Z"/>
          <path class="cls-3" d="m253.9,485.02h-.12v-.14h.12v.14Zm0,.85h-.12v-.71h.12v.71Z"/>
          <path class="cls-3" d="m254.85,484.87c.13,0,.24.05.32.14s.13.22.13.37-.04.28-.13.37-.19.14-.32.14-.24-.05-.32-.14c-.08-.09-.13-.22-.13-.37s.04-.28.13-.37.19-.14.32-.14Zm0,.91c.09,0,.17-.03.23-.1s.09-.17.09-.29-.03-.22-.09-.29-.14-.1-.23-.1-.17.03-.23.1-.09.17-.09.29.03.22.09.29.14.11.23.11h0Zm-.06-.98h-.12v-.14h.12v.14Zm.24,0h-.12v-.14h.12v.14Z"/>
          <path class="cls-3" d="m256,485.82c0,.23-.1.34-.3.34-.09,0-.15-.02-.2-.06s-.07-.09-.07-.16h.13c0,.08.05.12.15.12.06,0,.1-.02.13-.05s.05-.1.05-.19v-.04c-.05.07-.12.1-.19.1-.09,0-.16-.03-.21-.1s-.07-.16-.07-.27.03-.21.08-.28.12-.1.21-.1c.07,0,.14.02.19.07v-.06h.12v.66l-.02.02Zm-.12-.15v-.34c-.05-.06-.11-.09-.18-.09-.05,0-.09.02-.12.07-.03.05-.05.12-.05.21s0,.15.04.2.07.07.12.07c.07,0,.13-.04.18-.12h.01Zm.04-.79c0,.06-.03.1-.06.13s-.08.05-.13.05-.1-.02-.13-.05-.05-.07-.06-.13h.08c0,.06.05.09.11.09s.1-.03.11-.09h.08Z"/>
          <path class="cls-3" d="m256.54,485.27h-.07c-.06,0-.11.03-.16.1v.5h-.12v-.71h.12v.1c.05-.08.11-.12.18-.12h.06v.13h0Z"/>
          <path class="cls-3" d="m256.91,485.89c-.1,0-.18-.03-.24-.1s-.09-.16-.09-.27.03-.21.09-.27.14-.1.23-.1.17.03.23.1.09.16.09.28v.03h-.51c0,.08.03.14.07.18.04.04.09.06.14.06.04,0,.08-.01.11-.03s.05-.05.05-.1h.12c0,.07-.04.13-.09.17s-.12.06-.2.06h0Zm.18-.44c0-.07-.03-.12-.07-.15-.03-.03-.08-.05-.13-.05s-.09.02-.12.05-.06.09-.07.15h.39Z"/>
          <path class="cls-3" d="m257.48,485.25c.06-.07.13-.11.2-.11.15,0,.23.09.23.26v.47h-.12v-.46c0-.06-.01-.1-.03-.13s-.05-.04-.1-.04c-.06,0-.12.04-.18.11v.51h-.12v-.71h.12v.09h0Z"/>
          <path class="cls-3" d="m258.37,485.89c-.1,0-.17-.03-.23-.1s-.09-.16-.09-.28.03-.21.09-.28.14-.1.23-.1c.07,0,.14.02.19.06s.08.1.09.17h-.12s-.02-.08-.05-.1c-.03-.02-.06-.03-.1-.03-.06,0-.1.02-.14.07-.04.05-.05.11-.05.21s.02.16.05.2c.04.05.08.07.14.07.04,0,.08-.01.1-.03.03-.02.04-.05.05-.1h.12c0,.07-.04.13-.09.17s-.11.06-.19.06h0Z"/>
          <path class="cls-3" d="m258.87,485.02h-.12v-.14h.12v.14Zm0,.85h-.12v-.71h.12v.71Z"/>
          <path class="cls-3" d="m259.17,485.87h-.12v-.99h.12v.99Z"/>
          <path class="cls-3" d="m259.64,485.89c-.1,0-.18-.03-.24-.1s-.09-.16-.09-.27.03-.21.09-.27.14-.1.23-.1.17.03.23.1.09.16.09.28v.03h-.51c0,.08.03.14.07.18.04.04.09.06.14.06.04,0,.08-.01.11-.03s.05-.05.05-.1h.12c0,.07-.04.13-.09.17s-.12.06-.2.06h0Zm.18-.44c0-.07-.03-.12-.07-.15-.03-.03-.08-.05-.13-.05s-.09.02-.12.05-.06.09-.07.15h.39Z"/>
          <path class="cls-3" d="m260.44,485.27h-.07c-.06,0-.11.03-.16.1v.5h-.12v-.71h.12v.1c.05-.08.11-.12.18-.12h.06v.13h0Z"/>
          <path class="cls-3" d="m260.65,485.02h-.12v-.14h.12v.14Zm0,.85h-.12v-.71h.12v.71Z"/>
          <path class="cls-3" d="m261.53,485.88c-.12-.01-.21-.07-.28-.16s-.1-.21-.1-.35c0-.16.04-.28.12-.37s.18-.14.32-.14c.1,0,.19.03.26.09s.11.13.12.23h-.13c0-.06-.03-.11-.08-.15s-.11-.06-.18-.06c-.09,0-.17.03-.23.1s-.08.17-.08.29.03.23.08.29c.05.07.13.1.22.1.07,0,.13-.02.18-.06s.07-.09.08-.16h.13c0,.1-.04.18-.11.23-.06.06-.15.09-.25.1v.04c.07,0,.11.05.11.11,0,.09-.07.13-.19.13h-.07v-.08h.07s.08-.02.08-.06c0-.03-.03-.05-.09-.05v-.09l.02.02Z"/>
          <path class="cls-3" d="m262.56,485.8c-.06.06-.14.09-.24.09-.07,0-.12-.02-.17-.06-.04-.04-.07-.09-.07-.15,0-.17.14-.25.41-.25h.06v-.11s-.02-.04-.04-.06c-.02-.02-.06-.02-.11-.02-.11,0-.16.04-.17.12h-.12c0-.15.11-.22.29-.22.09,0,.16.02.2.05.05.04.07.11.07.21v.46h-.12v-.07h0Zm0-.11v-.16h-.08c-.18,0-.26.05-.26.15,0,.04.01.06.04.08s.06.03.1.03.08,0,.12-.03c.04-.02.07-.04.09-.08h-.01Z"/>
          <path class="cls-3" d="m262.99,485.87h-.12v-.99h.12v.99Z"/>
          <path class="cls-3" d="m263.29,485.87h-.12v-.71h.12v.71Z"/>
          <path class="cls-3" d="m263.66,485.89c-.15-.01-.23-.09-.24-.23h.12c0,.09.06.13.17.13.05,0,.09-.01.11-.03s.04-.05.04-.08-.01-.05-.04-.07c-.03-.01-.08-.03-.16-.05-.08-.02-.14-.04-.18-.07-.04-.03-.06-.07-.06-.14,0-.06.02-.11.07-.15.05-.04.11-.06.18-.06.18,0,.27.07.27.2h-.12c0-.07-.05-.1-.14-.1-.04,0-.07,0-.1.02s-.04.04-.04.07.01.05.03.06.07.03.15.05.14.05.18.07c.04.03.06.08.06.14s-.02.11-.06.15-.1.07-.17.07v.04c.07,0,.11.05.11.11,0,.09-.06.13-.19.13h-.07v-.08h.07c.06,0,.08-.02.08-.06,0-.03-.03-.05-.09-.05v-.09l.02.02Z"/>
          <path class="cls-3" d="m265.05,485.87h-.12v-.46c0-.06,0-.1-.02-.13-.02-.02-.04-.04-.08-.04-.06,0-.12.04-.17.11v.51h-.12v-.46c0-.06,0-.1-.02-.13-.02-.02-.04-.04-.08-.04-.06,0-.12.04-.17.11v.51h-.12v-.71h.12v.09c.06-.07.12-.11.19-.11.1,0,.16.04.19.13.05-.06.08-.09.12-.11.03-.02.06-.02.09-.02.14,0,.21.09.21.26v.47l-.02.02Z"/>
          <path class="cls-3" d="m265.66,485.8c-.06.06-.14.09-.24.09-.07,0-.12-.02-.17-.06-.04-.04-.07-.09-.07-.15,0-.17.14-.25.41-.25h.06v-.11s-.02-.04-.04-.06c-.02-.02-.06-.02-.11-.02-.11,0-.16.04-.17.12h-.12c0-.15.11-.22.29-.22.09,0,.16.02.2.05.05.04.07.11.07.21v.46h-.12v-.07h0Zm0-.11v-.16h-.08c-.18,0-.26.05-.26.15,0,.04.01.06.04.08s.06.03.1.03.08,0,.12-.03c.04-.02.07-.04.09-.08h-.01Z"/>
          <path class="cls-3" d="m266.74,485.89c-.14,0-.24-.05-.33-.14-.08-.09-.13-.22-.13-.37s.04-.28.12-.37.19-.14.33-.14c.11,0,.21.03.28.09.08.06.12.13.13.23h-.13c0-.06-.03-.11-.08-.15s-.11-.05-.2-.05c-.1,0-.18.03-.23.1-.06.07-.09.17-.09.29s.03.22.09.29.14.1.23.1c.14,0,.24-.05.3-.14v-.15h-.25v-.12h.37v.5h-.09l-.03-.1c-.06.08-.16.12-.3.12h.01Z"/>
          <path class="cls-3" d="m267.69,485.27h-.07c-.06,0-.11.03-.16.1v.5h-.12v-.71h.12v.1c.05-.08.11-.12.18-.12h.06v.13h0Z"/>
          <path class="cls-3" d="m268.2,485.78c-.06.07-.13.11-.2.11-.15,0-.23-.09-.23-.26v-.47h.12v.46c0,.06,0,.1.03.13s.05.04.1.04c.07,0,.13-.04.18-.11v-.51h.12v.71h-.12v-.09h0Z"/>
          <path class="cls-3" d="m268.63,485.24c.05-.07.12-.1.19-.1.09,0,.16.03.21.1s.07.16.07.27-.03.21-.08.28-.12.1-.21.1c-.07,0-.14-.02-.19-.07v.06h-.12v-.99h.12v.36h0Zm0,.46c.05.06.11.09.18.09.05,0,.09-.02.12-.07.03-.05.05-.12.05-.21s-.01-.15-.04-.2-.07-.07-.12-.07c-.07,0-.13.04-.18.12v.34h0Z"/>
          <path class="cls-3" d="m269.67,485.78c-.06.07-.13.11-.2.11-.15,0-.23-.09-.23-.26v-.47h.12v.46c0,.06,0,.1.03.13s.05.04.1.04c.07,0,.13-.04.18-.11v-.51h.12v.71h-.12v-.09h0Z"/>
        </g>
      </g>
      <g>
        <path class="cls-4" d="m269.82,451.82c0,.09.01.18.01.28v.89c0,.59-.08,1.18-.19,1.76-.31,1.77-1.02,3.38-2.1,4.82-.34.45-.71.88-1.11,1.28-.38.39-.77.77-1.15,1.16-2.29,2.3-4.59,4.59-6.88,6.89-.14.14-.28.14-.41,0-2.29-2.29-4.58-4.57-6.86-6.86-.4-.41-.81-.81-1.21-1.22-1.7-1.72-2.76-3.78-3.19-6.16-.15-.82-.22-1.65-.17-2.48.14-2.67,1.03-5.05,2.77-7.09.28-.33.58-.65.89-.94h0c2.09-1.94,4.89-3.13,7.96-3.13,4.14,0,7.78,2.15,9.86,5.39.03.04.05.08.08.12.03.05.06.1.1.16.69,1.15,1.17,2.41,1.42,3.77.05.26.08.51.12.77.03.2.05.4.07.6h-.01Z"/>
        <path class="cls-3" d="m264.43,448.01v.46h-.64c-.48.05-.48.51-.48.51v2.69c0,3.76-4.3,3.56-4.3,3.56v2.01c.11.88.83.93.83.93h.73v.41h-4.73v-.41h.73s.72-.05.83-.93v-2.01s-4.3.21-4.3-3.56v-2.69s0-.46-.48-.51h-.64v-.46h1.13s1.67-.05,1.67,2.22v2.42s0,2.11,2.63,2.11v-5.47s0-.93-1.4-.83v-.46h4.41v.46c-1.4-.1-1.4.83-1.4.83v5.47c2.63,0,2.63-2.11,2.63-2.11v-2.42c0-2.27,1.66-2.22,1.66-2.22h1.13-.01Z"/>
      </g>
    </g>
  </g>
</svg>