<?xml version="1.0" encoding="UTF-8"?>
<svg id="Layer_2" data-name="Layer 2" xmlns="http://www.w3.org/2000/svg" viewBox="0 0 834 840.42">
  <defs>
    <style>
      .cls-1 {
        fill: #4abc4d;
      }
    </style>
  </defs>
  <g id="objects">
    <g>
      <path class="cls-1" d="m660.71,466.81c0,76.69-29.86,148.78-84.09,203.01-54.23,54.23-126.32,84.09-203.01,84.09s-148.78-29.86-203.01-84.09c-54.23-54.23-84.09-126.32-84.09-203.01s29.86-148.78,84.09-203.01c54.23-54.23,126.32-84.09,203.01-84.09h68.32v-86.51h-68.32c-50.42,0-99.35,9.88-145.44,29.38-44.49,18.82-84.45,45.75-118.74,80.05-34.3,34.3-61.23,74.25-80.05,118.74C9.88,367.46,0,416.39,0,466.81s9.88,99.35,29.38,145.44c18.82,44.49,45.75,84.45,80.05,118.74,34.3,34.3,74.25,61.23,118.74,80.05,46.09,19.49,95.02,29.38,145.44,29.38s99.35-9.88,145.44-29.38c44.49-18.82,84.45-45.75,118.74-80.05,34.3-34.3,61.23-74.25,80.05-118.74,19.49-46.09,29.38-95.02,29.38-145.44v-57.45h-86.51v57.45Z"/>
      <polygon class="cls-1" points="834 84.39 732.46 0 377.52 427.08 266.39 350.81 191.68 459.67 403.17 604.82 834 84.39"/>
    </g>
  </g>
</svg>