<?xml version="1.0" encoding="utf-8"?>
<!-- Generator: Adobe Illustrator 27.7.0, SVG Export Plug-In . SVG Version: 6.00 Build 0)  -->
<svg version="1.1" id="Artwork_21" xmlns="http://www.w3.org/2000/svg" xmlns:xlink="http://www.w3.org/1999/xlink" x="0px" y="0px"
	 viewBox="0 0 51.7 53.2" style="enable-background:new 0 0 51.7 53.2;" xml:space="preserve">
<style type="text/css">
	.st0{fill:#A0144F;}
	.st1{fill:#FFFFFF;}
	.st2{display:none;fill:#FFFFFF;}
</style>
<g id="tpöçg-s">
	<g>
		<g>
			<path d="M9.3,45.2v1.5H6.9c0,0-2.8,0-3.1-2.9v-5.6h-3v-1.5h8.1v1.5H5.5v5c0,2.2,2.1,2.1,2.1,2.1H9.3z"/>
		</g>
		<g>
			<path d="M14.3,36.7H9.8v13.4h1.6v-3.4h2.9c2.6,0,4.8-2.2,4.8-5C19.1,38.9,16.9,36.7,14.3,36.7z M14.3,45.2h-2.9v-6.9h2.9
				c1.7,0.1,3,1.6,3,3.4S16,45.1,14.3,45.2z"/>
		</g>
		<g>
			<path d="M46.4,36.7c-2.6,0-4.8,2.2-4.8,5c0,2.8,2.1,5,4.8,5h2.9c-0.1,2-2.1,1.9-2.1,1.9h-1.7v1.5h2.3c0,0,0.7,0,1.5-0.4
				c0.7-0.4,1.5-1.1,1.6-2.5V36.7H46.4z M49.3,45.2h-2.9c-1.7-0.1-3-1.6-3-3.4s1.3-3.3,3-3.4h2.9V45.2z"/>
		</g>
		<g>
			<path d="M25.3,36.7c-2.9,0-5.3,2.2-5.3,5c0,2.8,2.4,5,5.3,5c2.9,0,5.3-2.2,5.3-5C30.6,38.9,28.2,36.7,25.3,36.7z M25.3,45.1
				c-2,0-3.6-1.5-3.6-3.4c0-1.9,1.6-3.4,3.6-3.4c2,0,3.6,1.5,3.6,3.4C28.9,43.6,27.3,45.1,25.3,45.1z"/>
		</g>
		<g>
			<path d="M37,45.1c-1.9,0-3.4-1.5-3.4-3.4c0-1.9,1.5-3.4,3.4-3.4c1.1,0,2.1,0.5,2.7,1.4l1.3-0.9c-0.9-1.3-2.4-2.1-4.1-2.1
				c-2.8,0-5,2.2-5,5c0,2.8,2.2,5,5,5c1.6,0,3.1-0.8,4-2l-1.3-0.9C39.1,44.6,38.1,45.1,37,45.1z"/>
		</g>
		<g>
			<ellipse cx="23" cy="35" rx="0.8" ry="0.9"/>
		</g>
		<g>
			<ellipse cx="27.4" cy="35" rx="0.8" ry="0.9"/>
		</g>
		<g>
			<ellipse cx="40.6" cy="48" rx="0.8" ry="0.9"/>
		</g>
		<g>
			<path d="M13.2,47.8h-0.3v1h-0.1v-1h-0.3v-0.1h0.8V47.8z"/>
			<path d="M13.8,48.7c-0.1,0.1-0.1,0.1-0.2,0.1c-0.2,0-0.3-0.1-0.3-0.3V48h0.1v0.5c0,0.1,0,0.1,0,0.1c0,0,0.1,0,0.1,0
				c0.1,0,0.1,0,0.2-0.1V48H14v0.8h-0.1V48.7z M13.6,47.9h-0.1v-0.2h0.1V47.9z M13.8,47.9h-0.1v-0.2h0.1V47.9z"/>
			<path d="M14.6,48.1C14.5,48.1,14.5,48.1,14.6,48.1c-0.2,0-0.2,0-0.3,0.1v0.6h-0.1V48h0.1v0.1c0.1-0.1,0.1-0.1,0.2-0.1
				c0,0,0,0,0.1,0V48.1z"/>
			<path d="M15.3,48.8h-0.2l-0.2-0.4l-0.1,0.1v0.3h-0.1v-1.1h0.1v0.6l0.3-0.3h0.2L15,48.3L15.3,48.8z"/>
			<path d="M15.8,47.7h0.4c0.1,0,0.2,0,0.2,0c0.1,0,0.1,0.1,0.1,0.1c0,0.1,0.1,0.1,0.1,0.2c0,0.1,0,0.2-0.1,0.3
				c-0.1,0.1-0.2,0.1-0.3,0.1h-0.3v0.4h-0.1V47.7z M15.9,48.2h0.3c0.1,0,0.2,0,0.2-0.1s0.1-0.1,0.1-0.2c0,0,0-0.1,0-0.1
				c0,0,0-0.1-0.1-0.1c0,0-0.1,0-0.1,0h-0.3V48.2z"/>
			<path d="M17,48.8c-0.2,0-0.3-0.1-0.3-0.3h0.1c0,0.1,0.1,0.1,0.2,0.1c0.1,0,0.1,0,0.1,0s0-0.1,0-0.1s0-0.1,0-0.1s-0.1,0-0.2-0.1
				s-0.2,0-0.2-0.1s-0.1-0.1-0.1-0.2c0-0.1,0-0.1,0.1-0.2c0.1,0,0.1-0.1,0.2-0.1c0.2,0,0.3,0.1,0.3,0.2h-0.1c0-0.1-0.1-0.1-0.2-0.1
				c0,0-0.1,0-0.1,0c0,0,0,0,0,0.1c0,0,0,0.1,0,0.1c0,0,0.1,0,0.2,0.1c0.1,0,0.2,0.1,0.2,0.1c0,0,0.1,0.1,0.1,0.2
				c0,0.1,0,0.1-0.1,0.2C17.2,48.8,17.1,48.8,17,48.8z"/>
			<path d="M17.6,47.9h-0.1v-0.2h0.1V47.9z M17.6,48.8h-0.1V48h0.1V48.8z"/>
			<path d="M18.5,48.8h-0.2l-0.2-0.4L18,48.5v0.3h-0.1v-1.1H18v0.6l0.3-0.3h0.2l-0.3,0.3L18.5,48.8z"/>
			<path d="M18.9,48c0.1,0,0.2,0,0.3,0.1s0.1,0.2,0.1,0.3c0,0.1,0,0.2-0.1,0.3s-0.2,0.1-0.3,0.1c-0.1,0-0.2,0-0.3-0.1
				s-0.1-0.2-0.1-0.3c0-0.1,0-0.2,0.1-0.3S18.8,48,18.9,48z M18.9,48.7c0.1,0,0.1,0,0.2-0.1c0-0.1,0.1-0.1,0.1-0.2
				c0-0.1,0-0.2-0.1-0.2c0-0.1-0.1-0.1-0.2-0.1c-0.1,0-0.1,0-0.2,0.1c0,0.1-0.1,0.1-0.1,0.2c0,0.1,0,0.2,0.1,0.2
				C18.8,48.7,18.8,48.7,18.9,48.7z"/>
			<path d="M19.5,48.8h-0.1v-1.1h0.1V48.8z"/>
			<path d="M20.1,48c0.1,0,0.2,0,0.3,0.1s0.1,0.2,0.1,0.3c0,0.1,0,0.2-0.1,0.3s-0.2,0.1-0.3,0.1c-0.1,0-0.2,0-0.3-0.1
				s-0.1-0.2-0.1-0.3c0-0.1,0-0.2,0.1-0.3S20,48,20.1,48z M20.1,48.7c0.1,0,0.1,0,0.2-0.1c0-0.1,0.1-0.1,0.1-0.2
				c0-0.1,0-0.2-0.1-0.2c0-0.1-0.1-0.1-0.2-0.1c-0.1,0-0.1,0-0.2,0.1c0,0.1-0.1,0.1-0.1,0.2c0,0.1,0,0.2,0.1,0.2
				C19.9,48.7,20,48.7,20.1,48.7z"/>
			<path d="M20.7,48.9c0,0.1,0,0.2-0.1,0.2c0,0-0.1,0.1-0.1,0.1c0,0-0.1,0-0.1,0V49c0,0,0.1,0,0.1,0c0,0,0,0,0.1,0c0,0,0-0.1,0-0.1
				V48h0.1V48.9z M20.7,47.9h-0.1v-0.2h0.1V47.9z"/>
			<path d="M21,47.9h-0.1v-0.2H21V47.9z M21,48.8h-0.1V48H21V48.8z"/>
			<path d="M22.1,47.7c0.1,0,0.3,0.1,0.4,0.2c0.1,0.1,0.1,0.2,0.1,0.4s0,0.3-0.1,0.4c-0.1,0.1-0.2,0.2-0.4,0.2
				c-0.1,0-0.3-0.1-0.4-0.2c-0.1-0.1-0.1-0.2-0.1-0.4c0-0.2,0-0.3,0.1-0.4C21.8,47.7,22,47.7,22.1,47.7z M22.1,48.7
				c0.1,0,0.2,0,0.3-0.1c0.1-0.1,0.1-0.2,0.1-0.3s0-0.3-0.1-0.3c-0.1-0.1-0.2-0.1-0.3-0.1c-0.1,0-0.2,0-0.3,0.1s-0.1,0.2-0.1,0.3
				c0,0.1,0,0.2,0.1,0.3C21.9,48.7,22,48.7,22.1,48.7z M22.1,47.6h-0.1v-0.2h0.1V47.6z M22.3,47.6h-0.1v-0.2h0.1V47.6z"/>
			<path d="M23.4,48.8c0,0.3-0.1,0.4-0.3,0.4c-0.1,0-0.2,0-0.2-0.1c-0.1,0-0.1-0.1-0.1-0.2h0.1c0,0.1,0.1,0.1,0.2,0.1
				c0.1,0,0.1,0,0.1-0.1c0,0,0.1-0.1,0.1-0.2v0c-0.1,0.1-0.1,0.1-0.2,0.1c-0.1,0-0.2,0-0.2-0.1s-0.1-0.2-0.1-0.3
				c0-0.1,0-0.2,0.1-0.3S23,48,23.1,48c0.1,0,0.2,0,0.2,0.1V48h0.1V48.8z M23.3,48.6v-0.4c-0.1-0.1-0.1-0.1-0.2-0.1
				c-0.1,0-0.1,0-0.1,0.1c0,0.1-0.1,0.1-0.1,0.2c0,0.1,0,0.2,0,0.2c0,0.1,0.1,0.1,0.1,0.1C23.1,48.7,23.2,48.7,23.3,48.6z
				 M23.3,47.7c0,0.1,0,0.1-0.1,0.1s-0.1,0.1-0.1,0.1c-0.1,0-0.1,0-0.1-0.1c0,0-0.1-0.1-0.1-0.1H23c0,0.1,0.1,0.1,0.1,0.1
				C23.2,47.8,23.2,47.8,23.3,47.7L23.3,47.7z"/>
			<path d="M24,48.1C24,48.1,24,48.1,24,48.1c-0.2,0-0.2,0-0.3,0.1v0.6h-0.1V48h0.1v0.1c0.1-0.1,0.1-0.1,0.2-0.1c0,0,0,0,0.1,0V48.1
				z"/>
			<path d="M24.4,48.8c-0.1,0-0.2,0-0.3-0.1c-0.1-0.1-0.1-0.2-0.1-0.3c0-0.1,0-0.2,0.1-0.3s0.2-0.1,0.3-0.1c0.1,0,0.2,0,0.3,0.1
				s0.1,0.2,0.1,0.3v0h-0.6c0,0.1,0,0.2,0.1,0.2s0.1,0.1,0.2,0.1c0,0,0.1,0,0.1,0s0.1-0.1,0.1-0.1h0.1c0,0.1,0,0.1-0.1,0.2
				C24.6,48.8,24.5,48.8,24.4,48.8z M24.6,48.3c0-0.1,0-0.1-0.1-0.2c0,0-0.1-0.1-0.1-0.1c-0.1,0-0.1,0-0.1,0.1c0,0-0.1,0.1-0.1,0.2
				H24.6z"/>
			<path d="M25.1,48.1c0.1-0.1,0.1-0.1,0.2-0.1c0.2,0,0.3,0.1,0.3,0.3v0.5h-0.1v-0.5c0-0.1,0-0.1,0-0.1c0,0-0.1,0-0.1,0
				c-0.1,0-0.1,0-0.2,0.1v0.6h-0.1V48h0.1V48.1z"/>
			<path d="M26.1,48.8c-0.1,0-0.2,0-0.3-0.1s-0.1-0.2-0.1-0.3c0-0.1,0-0.2,0.1-0.3S26,48,26.1,48c0.1,0,0.2,0,0.2,0.1
				c0.1,0,0.1,0.1,0.1,0.2h-0.1c0,0,0-0.1-0.1-0.1c0,0-0.1,0-0.1,0c-0.1,0-0.1,0-0.2,0.1c0,0.1-0.1,0.1-0.1,0.2c0,0.1,0,0.2,0.1,0.2
				c0,0.1,0.1,0.1,0.2,0.1c0,0,0.1,0,0.1,0c0,0,0-0.1,0.1-0.1h0.1c0,0.1,0,0.1-0.1,0.2C26.2,48.8,26.1,48.8,26.1,48.8z"/>
			<path d="M26.6,47.9h-0.1v-0.2h0.1V47.9z M26.6,48.8h-0.1V48h0.1V48.8z"/>
			<path d="M27,48.8h-0.1v-1.1H27V48.8z"/>
			<path d="M27.5,48.8c-0.1,0-0.2,0-0.3-0.1c-0.1-0.1-0.1-0.2-0.1-0.3c0-0.1,0-0.2,0.1-0.3c0.1-0.1,0.2-0.1,0.3-0.1
				c0.1,0,0.2,0,0.3,0.1c0.1,0.1,0.1,0.2,0.1,0.3v0h-0.6c0,0.1,0,0.2,0.1,0.2s0.1,0.1,0.2,0.1c0,0,0.1,0,0.1,0s0.1-0.1,0.1-0.1h0.1
				c0,0.1,0,0.1-0.1,0.2C27.7,48.8,27.6,48.8,27.5,48.8z M27.7,48.3c0-0.1,0-0.1-0.1-0.2c0,0-0.1-0.1-0.1-0.1c-0.1,0-0.1,0-0.1,0.1
				s-0.1,0.1-0.1,0.2H27.7z"/>
			<path d="M28.4,48.1C28.4,48.1,28.3,48.1,28.4,48.1c-0.2,0-0.2,0-0.3,0.1v0.6H28V48h0.1v0.1c0.1-0.1,0.1-0.1,0.2-0.1
				c0,0,0,0,0.1,0V48.1z"/>
			<path d="M28.6,47.9h-0.1v-0.2h0.1V47.9z M28.6,48.8h-0.1V48h0.1V48.8z"/>
			<path d="M29.6,48.8c-0.1,0-0.2-0.1-0.3-0.2c-0.1-0.1-0.1-0.2-0.1-0.4c0-0.2,0-0.3,0.1-0.4s0.2-0.2,0.4-0.2c0.1,0,0.2,0,0.3,0.1
				c0.1,0.1,0.1,0.2,0.1,0.3H30c0-0.1,0-0.1-0.1-0.2s-0.1-0.1-0.2-0.1c-0.1,0-0.2,0-0.3,0.1c-0.1,0.1-0.1,0.2-0.1,0.3
				c0,0.1,0,0.3,0.1,0.3c0.1,0.1,0.1,0.1,0.3,0.1c0.1,0,0.1,0,0.2-0.1s0.1-0.1,0.1-0.2h0.1c0,0.1,0,0.2-0.1,0.3
				C29.9,48.8,29.8,48.8,29.6,48.8L29.6,48.8c0.2,0.1,0.2,0.1,0.2,0.2c0,0.1-0.1,0.1-0.2,0.1c0,0,0,0-0.1,0V49c0,0,0.1,0,0.1,0
				c0.1,0,0.1,0,0.1-0.1c0,0,0-0.1-0.1-0.1V48.8z"/>
			<path d="M30.8,48.7c-0.1,0.1-0.2,0.1-0.3,0.1c-0.1,0-0.1,0-0.2-0.1c0,0-0.1-0.1-0.1-0.2c0-0.2,0.2-0.3,0.5-0.3h0.1
				c0-0.1,0-0.1,0-0.1c0,0,0,0,0-0.1c0,0-0.1,0-0.1,0c-0.1,0-0.2,0-0.2,0.1h-0.1c0-0.2,0.1-0.2,0.3-0.2c0.1,0,0.2,0,0.2,0.1
				c0.1,0,0.1,0.1,0.1,0.2v0.5L30.8,48.7L30.8,48.7z M30.8,48.6v-0.2h-0.1c-0.2,0-0.3,0.1-0.3,0.2c0,0,0,0.1,0,0.1c0,0,0.1,0,0.1,0
				C30.6,48.7,30.6,48.7,30.8,48.6C30.7,48.7,30.7,48.6,30.8,48.6z"/>
			<path d="M31.2,48.8h-0.1v-1.1h0.1V48.8z"/>
			<path d="M31.6,48.8h-0.1V48h0.1V48.8z"/>
			<path d="M32,48.8c-0.2,0-0.3-0.1-0.3-0.3h0.1c0,0.1,0.1,0.1,0.2,0.1c0.1,0,0.1,0,0.1,0c0,0,0-0.1,0-0.1s0-0.1,0-0.1
				c0,0-0.1,0-0.2-0.1s-0.2,0-0.2-0.1c0,0-0.1-0.1-0.1-0.2c0-0.1,0-0.1,0.1-0.2c0.1,0,0.1-0.1,0.2-0.1c0.2,0,0.3,0.1,0.3,0.2h-0.1
				c0-0.1-0.1-0.1-0.2-0.1c0,0-0.1,0-0.1,0c0,0,0,0,0,0.1c0,0,0,0.1,0,0.1c0,0,0.1,0,0.2,0.1c0.1,0,0.2,0.1,0.2,0.1
				c0,0,0.1,0.1,0.1,0.2c0,0.1,0,0.1-0.1,0.2c0,0-0.1,0.1-0.2,0.1v0c0.1,0,0.1,0.1,0.1,0.1c0,0.1-0.1,0.1-0.2,0.1c0,0,0,0-0.1,0V49
				c0,0,0.1,0,0.1,0c0.1,0,0.1,0,0.1-0.1c0,0,0-0.1-0.1-0.1V48.8z"/>
			<path d="M33.6,48.8h-0.1v-0.5c0-0.1,0-0.1,0-0.1c0,0,0,0-0.1,0c-0.1,0-0.1,0-0.2,0.1v0.6H33v-0.5c0-0.1,0-0.1,0-0.1
				c0,0,0,0-0.1,0c-0.1,0-0.1,0-0.2,0.1v0.6h-0.1V48h0.1v0.1c0.1-0.1,0.1-0.1,0.2-0.1c0.1,0,0.2,0,0.2,0.1c0.1-0.1,0.1-0.1,0.1-0.1
				c0,0,0.1,0,0.1,0c0.2,0,0.2,0.1,0.2,0.3V48.8z"/>
			<path d="M34.2,48.7c-0.1,0.1-0.2,0.1-0.3,0.1c-0.1,0-0.1,0-0.2-0.1c0,0-0.1-0.1-0.1-0.2c0-0.2,0.2-0.3,0.5-0.3h0.1
				c0-0.1,0-0.1,0-0.1c0,0,0,0,0-0.1c0,0-0.1,0-0.1,0c-0.1,0-0.2,0-0.2,0.1h-0.1c0-0.2,0.1-0.2,0.3-0.2c0.1,0,0.2,0,0.2,0.1
				c0.1,0,0.1,0.1,0.1,0.2v0.5L34.2,48.7L34.2,48.7z M34.2,48.6v-0.2h-0.1c-0.2,0-0.3,0.1-0.3,0.2c0,0,0,0.1,0,0.1c0,0,0.1,0,0.1,0
				C34.1,48.7,34.1,48.7,34.2,48.6C34.2,48.7,34.2,48.6,34.2,48.6z"/>
			<path d="M35.5,48.8c-0.2,0-0.3-0.1-0.4-0.2c-0.1-0.1-0.1-0.2-0.1-0.4c0-0.2,0-0.3,0.1-0.4c0.1-0.1,0.2-0.2,0.4-0.2
				c0.1,0,0.2,0,0.3,0.1c0.1,0.1,0.1,0.1,0.1,0.3h-0.1c0-0.1,0-0.1-0.1-0.2c-0.1,0-0.1-0.1-0.2-0.1c-0.1,0-0.2,0-0.3,0.1
				s-0.1,0.2-0.1,0.3c0,0.1,0,0.3,0.1,0.3s0.2,0.1,0.3,0.1c0.2,0,0.3-0.1,0.3-0.2v-0.2h-0.3v-0.1h0.4v0.6h-0.1l0-0.1
				C35.7,48.8,35.6,48.8,35.5,48.8z"/>
			<path d="M36.5,48.1C36.5,48.1,36.5,48.1,36.5,48.1c-0.2,0-0.2,0-0.3,0.1v0.6h-0.1V48h0.1v0.1c0.1-0.1,0.1-0.1,0.2-0.1
				c0,0,0,0,0.1,0V48.1z"/>
			<path d="M37.1,48.7c-0.1,0.1-0.1,0.1-0.2,0.1c-0.2,0-0.3-0.1-0.3-0.3V48h0.1v0.5c0,0.1,0,0.1,0,0.1c0,0,0.1,0,0.1,0
				c0.1,0,0.1,0,0.2-0.1V48h0.1v0.8h-0.1V48.7z"/>
			<path d="M37.6,48.1c0.1-0.1,0.1-0.1,0.2-0.1c0.1,0,0.2,0,0.2,0.1s0.1,0.2,0.1,0.3c0,0.1,0,0.2-0.1,0.3s-0.1,0.1-0.2,0.1
				c-0.1,0-0.2,0-0.2-0.1v0.1h-0.1v-1.1h0.1V48.1z M37.6,48.6c0.1,0.1,0.1,0.1,0.2,0.1c0.1,0,0.1,0,0.1-0.1c0-0.1,0.1-0.1,0.1-0.2
				c0-0.1,0-0.2,0-0.2c0-0.1-0.1-0.1-0.1-0.1c-0.1,0-0.1,0-0.2,0.1V48.6z"/>
			<path d="M38.7,48.7c-0.1,0.1-0.1,0.1-0.2,0.1c-0.2,0-0.3-0.1-0.3-0.3V48h0.1v0.5c0,0.1,0,0.1,0,0.1c0,0,0.1,0,0.1,0
				c0.1,0,0.1,0,0.2-0.1V48h0.1v0.8h-0.1V48.7z"/>
		</g>
	</g>
	<g>
		<path class="st0" d="M36.5,13.9c0,0.1,0,0.2,0,0.3c0,0.3,0,0.6,0,0.9c0,0.6-0.1,1.2-0.2,1.8c-0.3,1.8-1,3.4-2.1,4.8
			c-0.3,0.4-0.7,0.9-1.1,1.3c-0.4,0.4-0.8,0.8-1.1,1.2c-2.3,2.3-4.6,4.6-6.9,6.9c-0.2,0.2-0.2,0.2-0.4,0c-2.3-2.3-4.6-4.6-6.8-6.8
			c-0.4-0.4-0.8-0.8-1.2-1.2c-1.7-1.7-2.7-3.8-3.2-6.1c-0.1-0.8-0.2-1.6-0.2-2.5c0.1-2.7,1-5,2.8-7.1c0.3-0.3,0.6-0.6,0.9-0.9
			c0,0,0,0,0,0c2.1-1.9,4.9-3.1,7.9-3.1c4.1,0,7.7,2.1,9.8,5.4c0,0,0,0.1,0.1,0.1c0,0.1,0.1,0.1,0.1,0.2c0.7,1.1,1.2,2.4,1.4,3.8
			c0,0.3,0.1,0.5,0.1,0.8C36.5,13.5,36.5,13.7,36.5,13.9z"/>
		<path class="st1" d="M31.1,10.1v0.5h-0.6C30,10.6,30,11.1,30,11.1l0,2.7c0,3.7-4.3,3.5-4.3,3.5v2c0.1,0.9,0.8,0.9,0.8,0.9h0.7v0.4
			h-4.7v-0.4h0.7c0,0,0.7-0.1,0.8-0.9v-2c0,0-4.3,0.2-4.3-3.5l0-2.7c0,0,0-0.5-0.5-0.5h-0.6v-0.5h1.1c0,0,1.7-0.1,1.7,2.2v2.4
			c0,0,0,2.1,2.6,2.1v-5.4c0,0,0-0.9-1.4-0.8v-0.5h4.4v0.5c-1.4-0.1-1.4,0.8-1.4,0.8v5.4c2.6,0,2.6-2.1,2.6-2.1v-2.4
			c0-2.3,1.7-2.2,1.7-2.2H31.1z"/>
	</g>
	<path class="st2" d="M34.6,17.6c0,3.1-1.5,5.9-3.8,7.7c-1.6,1.2-3.6,2-5.8,2c-2.2,0-4.2-0.7-5.8-1.9c-2.3-1.8-3.8-4.5-3.8-7.7
		c0-2.8,1.2-5.3,3.1-7c0,0,0,0,0,0C20.1,9,22.4,8,24.9,8c3.4,0,6.4,1.8,8.1,4.4c0,0,0,0.1,0.1,0.1c0,0,0.1,0.1,0.1,0.1
		C34.1,14.1,34.6,15.8,34.6,17.6z"/>
</g>
</svg>
